<svg width="52" height="52" viewBox="0 0 52 52" fill="none" xmlns="http://www.w3.org/2000/svg">
<path d="M25.4696 37.8897H19.3647C18.5218 37.8897 17.8385 38.573 17.8385 39.4159C17.8385 40.2588 18.5218 40.9421 19.3647 40.9421H34.6268C35.4697 40.9421 36.153 40.2588 36.153 39.4159C36.153 38.573 35.4697 37.8897 34.6268 37.8897H28.522V28.6866C32.8106 28.2746 36.153 24.6727 36.153 20.2773C36.153 19.8041 36.1072 19.3463 36.0309 18.8884L34.8407 11.7085C34.7173 10.9639 34.0734 10.418 33.3187 10.418H24.6454L26.4921 14.0961L27.3163 15.7597H24.2639L26.4921 20.2009L27.3163 21.8645H23.9434L25.4696 26.8247L21.3946 21.2388L20.1889 19.5752H23.6229L21.3946 15.1339L20.5704 13.4704H23.6229L22.0967 10.418H20.6705C19.9169 10.418 19.2735 10.9625 19.1489 11.7058L17.9454 18.8884C17.8385 19.3463 17.8385 19.8041 17.8385 20.2773C17.8385 24.6727 21.1809 28.2746 25.4696 28.6866V37.8897Z" fill="#63E5F7"/>
<circle cx="23" cy="23" r="23" transform="matrix(-1 0 0 1 49 3)" stroke="#63E5F7" stroke-width="4.5"/>
</svg>
