<svg width="52" height="52" viewBox="0 0 52 52" fill="none" xmlns="http://www.w3.org/2000/svg">
<circle cx="23" cy="23" r="23" transform="matrix(-1 0 0 1 49 3)" stroke="#2C7002" stroke-width="4.5"/>
<path d="M26.8533 10.8197C26.7323 10.771 26.5973 10.771 26.4764 10.8197L21.0777 12.9894C20.8429 13.0838 20.8429 13.4162 21.0778 13.5106L26.5601 15.7136C26.6273 15.7406 26.7023 15.7406 26.7695 15.7136L32.2519 13.5106C32.4867 13.4162 32.4867 13.0838 32.2519 12.9894L26.8533 10.8197ZM33.7575 14.418C33.7575 14.2191 33.5565 14.0832 33.372 14.1574L27.3475 16.5788C27.2411 16.6215 27.1714 16.7247 27.1714 16.8394V24.2997C27.1714 24.4986 27.3725 24.6344 27.557 24.5603L33.5814 22.1389C33.6878 22.0961 33.7575 21.993 33.7575 21.8783V14.418ZM25.7726 24.5613C25.9571 24.6355 26.1582 24.4996 26.1582 24.3007V16.8384C26.1582 16.7237 26.0885 16.6205 25.982 16.5778L19.9576 14.1573C19.7731 14.0832 19.5721 14.219 19.5721 14.4179V21.8793C19.5721 21.994 19.6418 22.0971 19.7482 22.1399L25.7726 24.5613ZM26.1004 9.87384C26.4627 9.72825 26.8669 9.72825 27.2292 9.87384L34.4526 12.7776C34.5465 12.8154 34.627 12.8806 34.6837 12.9648C34.7404 13.049 34.7708 13.1483 34.7708 13.25V22.0691C34.7707 22.2726 34.7099 22.4713 34.5963 22.6397C34.4827 22.8081 34.3215 22.9385 34.1335 23.0139L26.8533 25.9401C26.7323 25.9888 26.5973 25.9888 26.4764 25.9401L19.1972 23.0139C19.009 22.9386 18.8476 22.8083 18.7338 22.6399C18.62 22.4715 18.559 22.2727 18.5588 22.0691V13.25C18.5589 13.1483 18.5892 13.049 18.6459 12.9648C18.7026 12.8806 18.7831 12.8154 18.877 12.7776L26.1004 9.87384Z" fill="#2C7002"/>
<path d="M14.5147 31.6995C14.9835 32.1972 15.449 32.6915 15.8871 33.3199V34.493H22.0323V33.3199C21.9224 32.4071 21.7289 30.7628 21.7115 30.3056C21.6884 29.6624 20.8253 28.49 20.8253 28.49L18.1756 25.15C18.1756 25.15 17.4257 24.358 16.9966 23.48C16.5667 22.6011 15.654 23.7065 15.5333 24.4969C15.4109 25.2872 15.6424 25.7039 15.6424 25.7039L17.1554 28.7116C17.1554 28.7116 15.401 26.3083 14.8562 25.3426C14.58 24.8532 14.5032 23.8165 14.4164 22.6582C14.3328 21.5297 14.2403 20.2854 13.9468 19.3181C13.3515 17.3588 11.6302 17.849 11.3318 18.7254C11.0341 19.6009 11.1011 25.3873 11.2094 26.3521C11.2946 27.1077 11.7501 27.8468 12.2635 28.6802C12.4057 28.9117 12.5529 29.1498 12.6976 29.397C13.273 30.3825 13.8963 31.0447 14.5147 31.6995ZM36.1126 33.3199C36.5508 32.6915 37.0162 32.1972 37.485 31.6995C38.1034 31.0447 38.7267 30.3825 39.303 29.397C39.4468 29.149 39.594 28.9117 39.7362 28.681C40.2496 27.8477 40.7051 27.1077 40.7903 26.3521C40.8986 25.3873 40.9664 19.6009 40.6679 18.7254C40.3695 17.849 38.6482 17.3588 38.053 19.319C37.7603 20.2863 37.6677 21.5297 37.5834 22.6582C37.4966 23.8165 37.4197 24.8532 37.1435 25.3426C36.5987 26.3091 34.8435 28.7116 34.8435 28.7116L36.3573 25.7039C36.3573 25.7039 36.5888 25.2872 36.4673 24.4969C36.3457 23.7065 35.4322 22.6011 35.0039 23.48C34.574 24.358 33.8242 25.15 33.8242 25.15L31.1744 28.49C31.1744 28.49 30.3113 29.6624 30.2882 30.3056C30.2716 30.7628 30.0774 32.4071 29.9674 33.3199V34.493H36.1126V33.3199ZM27.6525 38.6267C27.6525 38.846 27.7396 39.0563 27.8947 39.2113C28.0497 39.3664 28.26 39.4535 28.4793 39.4535H35.0932C35.3125 39.4535 35.5228 39.3664 35.6778 39.2113C35.8328 39.0563 35.92 38.846 35.92 38.6267V36.9733C35.92 36.754 35.8328 36.5437 35.6778 36.3887C35.5228 36.2336 35.3125 36.1465 35.0932 36.1465H28.4793C28.26 36.1465 28.0497 36.2336 27.8947 36.3887C27.7396 36.5437 27.6525 36.754 27.6525 36.9733V38.6267ZM24.3472 38.6267C24.3472 38.846 24.2601 39.0563 24.105 39.2113C23.95 39.3664 23.7397 39.4535 23.5205 39.4535H16.9065C16.6872 39.4535 16.477 39.3664 16.3219 39.2113C16.1669 39.0563 16.0798 38.846 16.0798 38.6267V36.9733C16.0798 36.754 16.1669 36.5437 16.3219 36.3887C16.477 36.2336 16.6872 36.1465 16.9065 36.1465H23.5205C23.7397 36.1465 23.95 36.2336 24.105 36.3887C24.2601 36.5437 24.3472 36.754 24.3472 36.9733V38.6267Z" fill="#2C7002"/>
</svg>
