<?xml version="1.0" standalone="no"?>
<!DOCTYPE svg PUBLIC "-//W3C//DTD SVG 20010904//EN"
 "http://www.w3.org/TR/2001/REC-SVG-20010904/DTD/svg10.dtd">
<svg version="1.0" xmlns="http://www.w3.org/2000/svg"
 width="64.000000pt" height="64.000000pt" viewBox="0 0 64.000000 64.000000"
 preserveAspectRatio="xMidYMid meet">

<g transform="translate(0.000000,64.000000) scale(0.100000,-0.100000)"
fill="#000000" stroke="none">
<path d="M185 516 c-30 -13 -144 -141 -157 -177 -4 -10 -4 -28 0 -38 14 -38
127 -164 159 -178 47 -19 311 -18 359 2 51 21 64 61 64 195 0 196 -16 210
-247 210 -99 -1 -158 -5 -178 -14z m140 -146 l22 -20 18 20 c10 11 24 20 31
20 24 0 26 -22 3 -46 l-22 -24 21 -23 c12 -13 22 -29 22 -35 0 -19 -32 -14
-55 8 l-22 20 -18 -20 c-36 -40 -67 -18 -34 24 l20 26 -20 26 c-33 43 -6 61
34 24z"/>
</g>
</svg>
