<svg width="634" height="276" viewBox="0 0 634 276" fill="none" xmlns="http://www.w3.org/2000/svg">
<g clip-path="url(#clip0_353_63358)">
<path d="M36.4006 96.7829L582.477 16.4882L604.662 166.453L58.5863 246.748L36.4006 96.7829Z" fill="#E1C9ED" stroke="black" stroke-width="5.74275" stroke-linejoin="round"/>
<path d="M284.385 38.9451H24.8049C16.9313 38.9451 10.6823 46.7862 11.4322 55.6074L27.4295 233.291C28.0544 240.572 33.4284 246.033 39.9273 246.033H299.508C307.381 246.033 313.63 238.192 312.88 229.371L296.883 51.6868C296.133 44.2658 290.884 38.9451 284.385 38.9451Z" fill="#FDF3E8" stroke="black" stroke-width="5.74275" stroke-miterlimit="10"/>
<path d="M121.991 168.684L108.477 172.427L111.605 177.791L120.114 177.417L124.368 175.545L121.991 168.684Z" fill="#FED5BD"/>
<path d="M294.276 38.9429H33.6185C25.7121 38.9429 19.4373 46.5978 20.1903 55.3663L36.2539 229.762C36.8814 236.86 42.2778 242.288 48.8036 242.288H309.461C317.367 242.288 323.642 234.633 322.889 225.865L306.826 51.4693C306.073 44.2318 300.802 38.9429 294.276 38.9429Z" fill="#FDF3E8" stroke="black" stroke-width="5.74275" stroke-miterlimit="10"/>
<path d="M33.2656 58.4907L49.5329 234.303L311.687 238.057L294.794 58.4907H33.2656Z" fill="#FED42B" stroke="black" stroke-width="5.74275" stroke-linecap="round" stroke-linejoin="round"/>
<path d="M409.043 222.951H50.0362C42.7785 222.951 36.647 228.815 36.3967 236.05C36.1464 243.286 41.7774 249.149 49.0351 249.149H408.042C415.299 249.149 421.431 243.286 421.681 236.05C421.931 228.815 416.3 222.951 409.043 222.951Z" fill="#FDF3E8" stroke="black" stroke-width="5.74275" stroke-miterlimit="10"/>
<path d="M409.04 222.951H347.6H328.329H203.196C195.939 222.951 189.807 228.814 189.557 236.05C189.307 243.286 194.938 249.149 202.195 249.149H327.328H346.724H408.164C415.422 249.149 421.553 243.286 421.804 236.05C421.929 228.814 416.298 222.951 409.04 222.951Z" fill="#FDF3E8" stroke="black" stroke-width="5.74275" stroke-miterlimit="10"/>
<path d="M60.1727 236.051C60.2978 232.932 57.7952 230.437 54.792 230.437C51.6637 230.437 49.0359 232.932 48.9107 236.051C48.7856 239.17 51.2883 241.665 54.2915 241.665C57.4198 241.665 60.0476 239.17 60.1727 236.051Z" fill="#FDF3E8" stroke="black" stroke-width="5.74275" stroke-miterlimit="10"/>
<path d="M87.4501 236.051C87.5752 232.932 85.0725 230.437 82.0693 230.437C78.941 230.437 76.3132 232.932 76.1881 236.051C76.063 239.169 78.5656 241.664 81.5688 241.664C84.6971 241.664 87.3249 239.169 87.4501 236.051Z" fill="#FDF3E8" stroke="black" stroke-width="5.74275" stroke-miterlimit="10"/>
<path d="M344.103 222.951H321.454H314.321H268.147C265.519 222.951 263.267 225.072 263.142 227.816C263.017 230.561 265.144 232.682 267.772 232.682H313.946H321.079H343.728C346.355 232.682 348.608 230.561 348.733 227.816C348.858 225.072 346.856 222.951 344.103 222.951Z" fill="#FDF3E8" stroke="black" stroke-width="5.74275" stroke-miterlimit="10"/>
<path d="M160.782 108.68C161.033 110.676 162.784 112.173 164.912 112.173H275.404C278.032 112.173 280.034 109.928 279.784 107.557L276.655 83.3554C276.405 81.3594 274.653 79.8623 272.526 79.8623H162.034C159.406 79.8623 157.404 82.1079 157.654 84.4782L160.782 108.68Z" fill="#FDF3E8" stroke="black" stroke-width="5.74275" stroke-miterlimit="10"/>
<path d="M174.672 90.915H217.342" stroke="black" stroke-width="5.74275" stroke-miterlimit="10" stroke-linecap="round" stroke-linejoin="round"/>
<path d="M175.426 100.072H197.324" stroke="black" stroke-width="5.74275" stroke-miterlimit="10" stroke-linecap="round" stroke-linejoin="round"/>
<path d="M251.5 96.0807L256.505 100.322L261.761 91.8391" fill="#FDF3E8"/>
<path d="M251.5 96.0807L256.505 100.322L261.761 91.8391" stroke="black" stroke-width="5.74275" stroke-linecap="round" stroke-linejoin="round"/>
<path d="M166.282 149.099C166.533 151.095 168.284 152.592 170.412 152.592H280.904C283.532 152.592 285.534 150.347 285.284 147.977L282.155 123.775C281.905 121.779 280.153 120.282 278.026 120.282H167.534C164.906 120.282 162.904 122.527 163.154 124.897L166.282 149.099Z" fill="#FDF3E8" stroke="black" stroke-width="5.74275" stroke-miterlimit="10"/>
<path d="M183.053 131.334H225.723" stroke="black" stroke-width="5.74275" stroke-miterlimit="10" stroke-linecap="round" stroke-linejoin="round"/>
<path d="M183.797 140.491H205.695" stroke="black" stroke-width="5.74275" stroke-miterlimit="10" stroke-linecap="round" stroke-linejoin="round"/>
<path d="M256.633 136.499L261.638 140.741L267.019 132.133" fill="#FDF3E8"/>
<path d="M256.633 136.499L261.638 140.741L267.019 132.133" stroke="black" stroke-width="5.74275" stroke-linecap="round" stroke-linejoin="round"/>
<path d="M171.79 189.395C172.04 191.391 173.792 192.888 175.919 192.888H286.412C289.04 192.888 291.042 190.643 290.792 188.272L287.663 164.07C287.413 162.074 285.661 160.577 283.534 160.577H173.041C170.414 160.577 168.412 162.823 168.662 165.193L171.79 189.395Z" fill="#FDF3E8" stroke="black" stroke-width="5.74275" stroke-miterlimit="10"/>
<path d="M187.305 171.753H229.975" stroke="black" stroke-width="5.74275" stroke-miterlimit="10" stroke-linecap="round" stroke-linejoin="round"/>
<path d="M188.059 180.785H209.957" stroke="black" stroke-width="5.74275" stroke-miterlimit="10" stroke-linecap="round" stroke-linejoin="round"/>
<path d="M261.764 176.794L266.894 181.035L272.15 172.552" fill="#FDF3E8"/>
<path d="M261.764 176.794L266.894 181.035L272.15 172.552" stroke="black" stroke-width="5.74275" stroke-linecap="round" stroke-linejoin="round"/>
<path d="M141.256 120.781C139.004 99.1987 119.608 81.7334 97.96 81.7334C76.312 81.7334 60.5452 99.1987 62.9228 120.781C65.3003 142.363 84.5708 159.828 106.219 159.828C127.867 159.828 143.508 142.363 141.256 120.781Z" fill="#37AF80" stroke="black" stroke-width="5.74275" stroke-linejoin="round"/>
<path d="M461.998 57.3111L606.848 101.736L621.178 55.0103L476.329 10.5855L461.998 57.3111Z" fill="#BA9C80" stroke="black" stroke-width="5.09587" stroke-linejoin="round"/>
<path d="M447.667 104.037L592.516 148.462L606.847 101.736L461.998 57.3111L447.667 104.037Z" fill="#BA9C80" stroke="black" stroke-width="5.09587" stroke-linejoin="round"/>
<path d="M419.006 197.488L563.855 241.913L592.517 148.462L447.667 104.037L419.006 197.488Z" fill="#BA9C80" stroke="black" stroke-width="5.09587" stroke-linejoin="round"/>
<path d="M473.908 214.327L508.952 225.074L537.614 131.623L502.569 120.875L473.908 214.327Z" fill="#FED42B" stroke="black" stroke-width="5.09587" stroke-linejoin="round"/>
<path d="M502.569 120.875L537.614 131.623L566.275 38.1719L531.231 27.424L502.569 120.875Z" fill="#FED42B" stroke="black" stroke-width="5.09587" stroke-linejoin="round"/>
<rect x="459.381" y="138.771" width="89.1948" height="72.0889" transform="rotate(-2.44939 459.381 138.771)" fill="#29C489" stroke="black" stroke-width="5.09587" stroke-linecap="round" stroke-linejoin="round"/>
<path d="M495.165 179.064C501.611 184.758 510.456 184.379 516.392 178.156" stroke="black" stroke-width="5.09587" stroke-linecap="round" stroke-linejoin="round"/>
<circle cx="489.195" cy="164.966" r="3.62012" transform="rotate(-2.44939 489.195 164.966)" fill="black"/>
<ellipse cx="505.459" cy="170.853" rx="3.62012" ry="3.62012" transform="rotate(-2.44939 505.459 170.853)" fill="black"/>
<ellipse cx="521.455" cy="163.587" rx="3.62011" ry="3.62011" transform="rotate(-2.44939 521.455 163.587)" fill="black"/>
<path d="M345.613 110.568C345.613 110.568 371.015 122.295 372.266 123.044C373.518 123.792 362.631 227.211 362.631 227.211L353.622 230.33L332.474 205.879L307.322 191.657L296.186 166.707L298.063 152.111L345.613 110.568Z" fill="#FED5BD"/>
<path d="M352.997 100.215C356.251 96.597 357.627 91.6068 357.002 86.8662C356.501 82.9989 355.625 78.2585 354.749 74.6407C350.995 60.4189 352.622 44.9497 359.254 31.8507C361.006 28.2329 363.258 24.7399 367.012 23.1181C369.265 22.1201 372.018 21.9953 374.27 23.2428C378.524 25.6131 378.524 31.1022 378.399 35.5933C377.774 50.4387 378.399 65.6585 383.279 79.6307C386.533 89.2366 391.789 98.2187 395.042 107.825C395.042 107.949 395.167 108.074 395.167 108.199C398.796 118.678 400.298 129.656 399.922 140.759C399.672 148.369 400.172 158.349 403.676 164.961C404.177 165.959 405.178 166.832 406.054 167.705C421.902 183.284 443.477 203.604 467.093 222.722C467.093 222.722 423.906 233.949 388.039 272.206C374.596 255.156 360.562 235.461 352.246 225.466C352.246 225.466 345.114 218.105 337.481 215.735C329.848 213.365 321.839 210.994 314.456 208.624L313.33 208.375C306.198 206.503 299.44 203.634 293.184 199.767C289.555 197.521 286.552 193.779 284.925 189.288C284.55 188.29 284.174 187.292 283.924 186.294C281.421 179.058 290.431 160.595 292.433 158.474C295.561 155.106 300.066 153.359 304.696 153.733L339.608 156.852C341.735 156.727 343.737 157.975 344.989 159.971C346.365 162.092 346.616 164.711 345.74 167.082C344.739 170.076 342.862 172.571 340.484 174.193C339.233 175.066 337.981 175.565 336.48 175.939C331.6 177.062 321.339 179.432 308.45 177.187" fill="#FED5BD"/>
<path d="M352.997 100.215C356.251 96.597 357.627 91.6068 357.002 86.8662C356.501 82.9989 355.625 78.2585 354.749 74.6407C350.995 60.4189 352.622 44.9497 359.254 31.8507C361.006 28.2329 363.258 24.7399 367.012 23.1181C369.265 22.1201 372.018 21.9953 374.27 23.2428C378.524 25.6131 378.524 31.1022 378.399 35.5933C377.774 50.4387 378.399 65.6585 383.279 79.6307C386.533 89.2366 391.789 98.2187 395.042 107.825C395.042 107.949 395.167 108.074 395.167 108.199C398.796 118.678 400.298 129.656 399.922 140.759C399.672 148.369 400.172 158.349 403.676 164.961C404.177 165.959 405.178 166.832 406.054 167.705C421.902 183.284 443.477 203.604 467.093 222.722C467.093 222.722 423.906 233.949 388.039 272.206C374.596 255.156 360.562 235.461 352.246 225.466C352.246 225.466 345.114 218.105 337.481 215.735C329.848 213.365 321.839 210.994 314.456 208.624L313.33 208.375C306.198 206.503 299.44 203.634 293.184 199.767C289.555 197.521 286.552 193.779 284.925 189.288C284.55 188.29 284.174 187.292 283.924 186.294C281.421 179.058 290.431 160.595 292.433 158.474C295.561 155.106 300.066 153.359 304.696 153.733L339.608 156.852C341.735 156.727 343.737 157.975 344.989 159.971C346.365 162.092 346.616 164.711 345.74 167.082C344.739 170.076 342.862 172.571 340.484 174.193C339.233 175.066 337.981 175.565 336.48 175.939C331.6 177.062 321.339 179.432 308.45 177.187" stroke="black" stroke-width="5.74275" stroke-miterlimit="10" stroke-linecap="round" stroke-linejoin="round"/>
<path d="M299.568 154.98L287.179 147.246C282.299 144.252 278.545 139.386 276.293 133.398C275.792 132.151 275.417 130.778 274.916 129.531C272.289 121.921 277.294 100.589 283.551 90.1094C285.553 86.7411 289.432 84.8697 293.311 85.244L348.244 90.7331C350.997 90.6084 353.625 92.1053 355.252 94.8498C357.004 97.5944 357.379 101.087 356.253 104.081C354.876 108.074 352.499 111.317 349.37 113.438C347.744 114.561 345.992 115.309 344.115 115.683C337.733 117.18 317.211 121.671 303.322 117.929" fill="#FED5BD"/>
<path d="M299.568 154.98L287.179 147.246C282.299 144.252 278.545 139.386 276.293 133.398C275.792 132.151 275.417 130.778 274.916 129.531C272.289 121.921 277.294 100.589 283.551 90.1094C285.553 86.7411 289.432 84.8697 293.311 85.244L348.244 90.7331C350.997 90.6084 353.625 92.1053 355.252 94.8498C357.004 97.5944 357.379 101.087 356.253 104.081C354.876 108.074 352.499 111.317 349.37 113.438C347.744 114.561 345.992 115.309 344.115 115.683C337.733 117.18 317.211 121.671 303.322 117.929" stroke="black" stroke-width="5.74275" stroke-miterlimit="10" stroke-linecap="round" stroke-linejoin="round"/>
<path d="M297.441 177.435L285.052 169.701C280.172 166.707 276.418 161.841 274.166 155.853C273.665 154.606 273.29 153.234 272.789 151.986C270.162 144.376 275.167 123.044 281.424 112.564C283.426 109.196 287.305 107.325 291.184 107.699L346.117 113.188C348.87 113.063 351.498 114.56 353.125 117.305C354.877 120.05 355.252 123.543 354.126 126.537C352.749 130.529 350.372 133.772 347.244 135.893C345.617 137.016 343.865 137.764 341.988 138.139C335.606 139.636 315.084 144.127 301.195 140.384" fill="#FED5BD"/>
<path d="M297.441 177.435L285.052 169.701C280.172 166.707 276.418 161.841 274.166 155.853C273.665 154.606 273.29 153.234 272.789 151.986C270.162 144.376 275.167 123.044 281.424 112.564C283.426 109.196 287.305 107.325 291.184 107.699L346.117 113.188C348.87 113.063 351.498 114.56 353.125 117.305C354.877 120.05 355.252 123.543 354.126 126.537C352.749 130.529 350.372 133.772 347.244 135.893C345.617 137.016 343.865 137.764 341.988 138.139C335.606 139.636 315.084 144.127 301.195 140.384" stroke="black" stroke-width="5.74275" stroke-miterlimit="10" stroke-linecap="round" stroke-linejoin="round"/>
<path d="M299.066 195.025L287.554 187.914C283.049 185.17 279.545 180.554 277.418 175.065C277.043 173.942 276.542 172.694 276.167 171.447C273.789 164.336 278.419 144.625 284.175 134.895C286.052 131.776 289.556 130.029 293.185 130.404L344.114 135.518C346.616 135.394 349.119 136.891 350.621 139.261C352.247 141.881 352.623 145 351.622 147.869C350.37 151.611 348.118 154.605 345.24 156.601C343.738 157.599 342.112 158.348 340.36 158.722C334.479 160.219 315.458 164.336 302.445 160.843" fill="#FED5BD"/>
<path d="M299.066 195.025L287.554 187.914C283.049 185.17 279.545 180.554 277.418 175.065C277.043 173.942 276.542 172.694 276.167 171.447C273.789 164.336 278.419 144.625 284.175 134.895C286.052 131.776 289.556 130.029 293.185 130.404L344.114 135.518C346.616 135.394 349.119 136.891 350.621 139.261C352.247 141.881 352.623 145 351.622 147.869C350.37 151.611 348.118 154.605 345.24 156.601C343.738 157.599 342.112 158.348 340.36 158.722C334.479 160.219 315.458 164.336 302.445 160.843" stroke="black" stroke-width="5.74275" stroke-miterlimit="10" stroke-linecap="round" stroke-linejoin="round"/>
<path d="M322.588 211.119C319.71 210.245 316.957 209.372 314.204 208.499L313.078 208.249C305.946 206.378 299.188 203.509 292.932 199.641C289.303 197.396 286.3 193.653 284.673 189.162C284.298 188.164 283.922 187.166 283.672 186.168C281.169 178.933 290.179 160.469 292.181 158.349C295.309 154.98 299.814 153.234 304.444 153.608L339.356 156.727C341.483 156.602 343.486 157.85 344.737 159.846C346.113 161.966 346.364 164.586 345.488 166.957C344.487 169.951 342.61 172.446 340.232 174.067C338.981 174.941 337.729 175.44 336.228 175.814C331.348 176.937 321.087 179.307 308.198 177.061" fill="#FED5BD"/>
<path d="M322.588 211.119C319.71 210.245 316.957 209.372 314.204 208.499L313.078 208.249C305.946 206.378 299.188 203.509 292.932 199.641C289.303 197.396 286.3 193.653 284.673 189.162C284.298 188.164 283.922 187.166 283.672 186.168C281.169 178.933 290.179 160.469 292.181 158.349C295.309 154.98 299.814 153.234 304.444 153.608L339.356 156.727C341.483 156.602 343.486 157.85 344.737 159.846C346.113 161.966 346.364 164.586 345.488 166.957C344.487 169.951 342.61 172.446 340.232 174.067C338.981 174.941 337.729 175.44 336.228 175.814C331.348 176.937 321.087 179.307 308.198 177.061" stroke="black" stroke-width="5.74275" stroke-miterlimit="10" stroke-linecap="round" stroke-linejoin="round"/>
</g>
<defs>
<clipPath id="clip0_353_63358">
<rect width="634" height="275.652" fill="white"/>
</clipPath>
</defs>
</svg>
