<svg width="346" height="150" viewBox="0 0 346 150" fill="none" xmlns="http://www.w3.org/2000/svg">
<path d="M20.1987 52.6657L317.079 8.97217L329.14 90.5776L32.2602 134.271L20.1987 52.6657Z" fill="#E1C9ED"/>
<path fill-rule="evenodd" clip-rule="evenodd" d="M316.852 7.4265C317.705 7.30104 318.498 7.89059 318.624 8.74371L330.685 90.3492C330.745 90.7593 330.641 91.1768 330.394 91.5096C330.147 91.8425 329.778 92.0634 329.368 92.1237L32.4878 135.817C31.6354 135.943 30.8426 135.353 30.7165 134.5L18.655 52.8946C18.5944 52.4844 18.6991 52.0669 18.9462 51.7341C19.1932 51.4012 19.5623 51.1803 19.9721 51.12L316.852 7.4265ZM21.9721 53.9843L33.5767 132.499L327.368 89.2594L315.763 10.7454L21.9721 53.9843Z" fill="black"/>
<path d="M155.018 21.1929H13.8947C9.61418 21.1929 6.21684 25.4597 6.62453 30.2599L15.3216 126.949C15.6614 130.911 18.583 133.883 22.1162 133.883H163.24C167.52 133.883 170.918 129.616 170.51 124.816L161.813 28.1264C161.405 24.0882 158.551 21.1929 155.018 21.1929Z" fill="#FDF3E8"/>
<path fill-rule="evenodd" clip-rule="evenodd" d="M5.06869 30.3923C4.60176 24.8945 8.49757 19.6304 13.8943 19.6304H155.018C159.513 19.6304 162.895 23.3037 163.366 27.9693L163.367 27.9778L172.065 124.68L172.065 124.683C172.532 130.181 168.636 135.445 163.24 135.445H22.1158C17.6307 135.445 14.1638 131.704 13.7662 127.086C13.7661 127.085 13.766 127.084 13.7659 127.082L5.06902 30.3961L5.06869 30.3923ZM8.17927 30.1238C8.17937 30.1251 8.17948 30.1263 8.17958 30.1275L16.8766 126.815C17.1599 130.12 19.5357 132.32 22.1158 132.32H163.24C166.403 132.32 169.301 129.052 168.954 124.951C168.954 124.95 168.954 124.949 168.954 124.948L160.259 28.2836C160.259 28.2808 160.259 28.278 160.259 28.2752C159.911 24.8693 157.587 22.7554 155.018 22.7554H13.8943C10.7309 22.7554 7.83288 26.023 8.17927 30.1238Z" fill="black"/>
<path d="M66.7313 91.7924L59.3843 93.8286L61.0849 96.7475L65.7109 96.544L68.0236 95.5259L66.7313 91.7924Z" fill="#FED5BD"/>
<path d="M160.396 21.1915H18.6868C14.3884 21.1915 10.977 25.357 11.3864 30.1285L20.1195 125.028C20.4607 128.891 23.3945 131.845 26.9423 131.845H168.651C172.95 131.845 176.361 127.679 175.952 122.908L167.219 28.0079C166.81 24.0695 163.944 21.1915 160.396 21.1915Z" fill="#FDF3E8"/>
<path fill-rule="evenodd" clip-rule="evenodd" d="M9.83083 30.2622C9.35851 24.7571 13.3032 19.629 18.6865 19.629H160.396C164.884 19.629 168.295 23.26 168.771 27.8462L168.772 27.8554L177.506 122.764L177.506 122.769L177.507 122.774C177.979 128.279 174.034 133.408 168.651 133.408H26.9421C22.4643 133.408 18.9669 129.709 18.5646 125.169C18.5645 125.168 18.5644 125.167 18.5643 125.166L9.83124 30.267L9.83083 30.2622ZM12.9411 29.9902C12.9412 29.9917 12.9414 29.9933 12.9415 29.9948L21.6743 124.891C21.9555 128.075 24.3252 130.283 26.9421 130.283H168.651C171.863 130.283 174.74 127.082 174.397 123.047C174.397 123.045 174.396 123.043 174.396 123.041L165.666 28.1696C165.666 28.1665 165.665 28.1634 165.665 28.1602C165.32 24.875 163.001 22.754 160.396 22.754H18.6865C15.4743 22.754 12.5972 25.9545 12.9411 29.9902Z" fill="black"/>
<path d="M18.4956 31.8286L27.3395 127.499L169.862 129.542L160.678 31.8286H18.4956Z" fill="#FED42B"/>
<path fill-rule="evenodd" clip-rule="evenodd" d="M17.3406 30.7759C17.6364 30.4512 18.0551 30.2661 18.4942 30.2661H160.677C161.482 30.2661 162.156 30.8796 162.231 31.6823L171.415 129.396C171.457 129.837 171.309 130.276 171.008 130.602C170.707 130.928 170.282 131.111 169.839 131.104L27.3157 129.062C26.5179 129.05 25.8572 128.438 25.7836 127.643L16.9398 31.9726C16.8993 31.535 17.0448 31.1006 17.3406 30.7759ZM20.2063 33.3911L28.7632 125.957L168.144 127.955L159.256 33.3911H20.2063Z" fill="black"/>
<path d="M222.79 121.322H27.6125C23.6668 121.322 20.3333 124.513 20.1972 128.45C20.0612 132.388 23.1225 135.578 27.0682 135.578H222.246C226.191 135.578 229.525 132.388 229.661 128.45C229.797 124.513 226.736 121.322 222.79 121.322Z" fill="#FDF3E8"/>
<path fill-rule="evenodd" clip-rule="evenodd" d="M18.6376 128.396C18.8032 123.607 22.8365 119.759 27.613 119.759H222.791C227.624 119.759 231.388 123.687 231.222 128.504C231.056 133.293 227.023 137.14 222.247 137.14H27.0688C22.2358 137.14 18.4712 133.213 18.6376 128.396L18.6376 128.396ZM21.7579 128.504C21.8645 125.418 24.4981 122.884 27.613 122.884L21.7579 128.504ZM27.613 122.884H222.791H27.613ZM222.791 122.884C225.849 122.884 228.207 125.338 228.102 128.396L222.791 122.884ZM21.7579 128.504C21.6522 131.562 24.0103 134.015 27.0688 134.015H222.247C225.361 134.015 227.995 131.482 228.102 128.396" fill="black"/>
<path d="M222.789 121.322H189.387H178.91H110.88C106.934 121.322 103.601 124.513 103.465 128.45C103.329 132.387 106.39 135.578 110.336 135.578H178.365H188.91H222.313C226.259 135.578 229.592 132.387 229.728 128.45C229.796 124.513 226.735 121.322 222.789 121.322Z" fill="#FDF3E8"/>
<path fill-rule="evenodd" clip-rule="evenodd" d="M101.905 128.396C102.071 123.607 106.104 119.759 110.88 119.759H222.79C227.628 119.759 231.372 123.686 231.29 128.477L231.289 128.49L231.289 128.504C231.123 133.293 227.09 137.14 222.313 137.14H110.336C105.503 137.14 101.739 133.213 101.905 128.396ZM105.025 128.504C104.92 131.562 107.278 134.015 110.336 134.015H222.313C225.424 134.015 228.054 131.489 228.168 128.409C228.214 125.332 225.839 122.884 222.79 122.884H110.88C107.766 122.884 105.132 125.419 105.025 128.504Z" fill="black"/>
<path d="M33.1227 128.45C33.1907 126.753 31.8302 125.396 30.1974 125.396C28.4967 125.396 27.0681 126.753 27 128.45C26.932 130.148 28.2926 131.505 29.9253 131.505C31.6261 131.505 33.0547 130.148 33.1227 128.45Z" fill="#FDF3E8"/>
<path fill-rule="evenodd" clip-rule="evenodd" d="M25.4408 128.388C25.5429 125.841 27.6711 123.833 30.198 123.833C32.6995 123.833 34.7873 125.911 34.6831 128.513C34.581 131.06 32.4528 133.068 29.9259 133.068C27.4244 133.068 25.3365 130.99 25.4408 128.388L25.4408 128.388ZM28.5604 128.513C28.5286 129.306 29.162 129.943 29.9259 129.943C30.8004 129.943 31.5295 129.236 31.5635 128.388C31.5952 127.595 30.9619 126.958 30.198 126.958C29.3235 126.958 28.5944 127.665 28.5604 128.513" fill="black"/>
<path d="M47.9528 128.451C48.0208 126.753 46.6602 125.396 45.0275 125.396C43.3267 125.396 41.8981 126.753 41.8301 128.451C41.7621 130.148 43.1226 131.506 44.7554 131.506C46.4561 131.506 47.8847 130.148 47.9528 128.451Z" fill="#FDF3E8"/>
<path fill-rule="evenodd" clip-rule="evenodd" d="M40.2708 128.388C40.3729 125.841 42.5011 123.833 45.028 123.833C47.5295 123.833 49.6174 125.911 49.5131 128.513L49.5131 128.513C49.411 131.06 47.2828 133.068 44.7559 133.068C42.2544 133.068 40.1666 130.99 40.2708 128.388ZM45.028 126.958C44.1534 126.958 43.4244 127.665 43.3904 128.513C43.3587 129.306 43.992 129.943 44.7559 129.943C45.6304 129.943 46.3595 129.236 46.3935 128.388M45.028 126.958C45.7919 126.958 46.4253 127.595 46.3935 128.388L45.028 126.958Z" fill="black"/>
<path d="M187.485 121.322H175.172H171.294H146.191C144.762 121.322 143.538 122.476 143.47 123.969C143.402 125.463 144.558 126.617 145.987 126.617H171.09H174.968H187.281C188.709 126.617 189.934 125.463 190.002 123.969C190.07 122.476 188.982 121.322 187.485 121.322Z" fill="#FDF3E8"/>
<path fill-rule="evenodd" clip-rule="evenodd" d="M141.91 123.898C142.015 121.581 143.916 119.76 146.19 119.76H187.485C189.881 119.76 191.669 121.667 191.561 124.04C191.456 126.358 189.554 128.18 187.281 128.18H145.986C143.686 128.18 141.801 126.3 141.91 123.898ZM145.029 124.04C145.002 124.626 145.429 125.055 145.986 125.055H187.281C187.864 125.055 188.412 124.568 188.442 123.898C188.47 123.285 188.082 122.885 187.485 122.885H146.19C145.607 122.885 145.059 123.371 145.029 124.04Z" fill="black"/>
<path d="M87.8209 59.1398C87.9574 60.2259 88.9093 61.0411 90.0662 61.0411H150.136C151.565 61.0411 152.654 59.8189 152.518 58.5292L150.817 45.3593C150.681 44.2732 149.728 43.4585 148.572 43.4585H88.5016C87.0728 43.4585 85.9844 44.6805 86.1204 45.9703L87.8209 59.1398Z" fill="#FDF3E8"/>
<path fill-rule="evenodd" clip-rule="evenodd" d="M84.5669 46.1342C84.3285 43.8714 86.1962 41.896 88.5006 41.896H148.571C150.459 41.896 152.122 43.2427 152.364 45.162C152.364 45.1631 152.364 45.1641 152.364 45.1651L154.067 58.3471L154.069 58.3653C154.308 60.6278 152.44 62.6036 150.135 62.6036H90.0653C88.1759 62.6036 86.514 61.2556 86.2715 59.3378C86.2714 59.3368 86.2712 59.3358 86.2711 59.3347L84.5689 46.1524L84.5669 46.1342ZM87.6708 45.7948L89.3688 58.9448C89.4006 59.1977 89.6418 59.4786 90.0653 59.4786H150.135C150.682 59.4786 150.99 59.0213 150.965 58.7047L149.267 45.5597L149.267 45.5535C149.235 45.3022 148.995 45.021 148.571 45.021H88.5006C87.9543 45.021 87.646 45.4782 87.6708 45.7948Z" fill="black"/>
<path fill-rule="evenodd" clip-rule="evenodd" d="M93.8101 49.4727C93.8101 48.6097 94.509 47.9102 95.3711 47.9102H118.569C119.431 47.9102 120.13 48.6097 120.13 49.4727C120.13 50.3356 119.431 51.0352 118.569 51.0352H95.3711C94.509 51.0352 93.8101 50.3356 93.8101 49.4727Z" fill="black"/>
<path fill-rule="evenodd" clip-rule="evenodd" d="M94.2202 54.4556C94.2202 53.5926 94.9191 52.8931 95.7813 52.8931H107.686C108.549 52.8931 109.247 53.5926 109.247 54.4556C109.247 55.3185 108.549 56.0181 107.686 56.0181H95.7813C94.9191 56.0181 94.2202 55.3185 94.2202 54.4556Z" fill="black"/>
<path d="M137.141 52.284L139.862 54.5922L142.719 49.9758" fill="#FDF3E8"/>
<path fill-rule="evenodd" clip-rule="evenodd" d="M143.542 48.6476C144.275 49.1021 144.501 50.0652 144.047 50.7987L141.189 55.4151C140.95 55.8016 140.554 56.0647 140.106 56.1356C139.657 56.2064 139.199 56.0782 138.853 55.7842L136.132 53.4759C135.474 52.918 135.393 51.932 135.95 51.2737C136.508 50.6154 137.493 50.534 138.15 51.0919L139.489 52.2277L141.393 49.1529C141.847 48.4193 142.809 48.1931 143.542 48.6476Z" fill="black"/>
<path d="M90.8112 81.1349C90.9476 82.221 91.8996 83.0356 93.0565 83.0356H153.127C154.555 83.0356 155.644 81.8134 155.508 80.5238L153.807 67.3539C153.671 66.2677 152.718 65.4531 151.562 65.4531H91.4918C90.0631 65.4531 88.9747 66.6748 89.1106 67.965L90.8112 81.1349Z" fill="#FDF3E8"/>
<path fill-rule="evenodd" clip-rule="evenodd" d="M87.5572 68.1288C87.3188 65.8656 89.1865 63.8906 91.4909 63.8906H151.561C153.449 63.8906 155.113 65.2372 155.354 67.1566C155.354 67.1576 155.355 67.1587 155.355 67.1597L157.057 80.3416L157.059 80.3598C157.298 82.6224 155.43 84.5981 153.126 84.5981H93.0555C91.1667 84.5981 89.5043 83.2512 89.2617 81.3328C89.2616 81.3318 89.2615 81.3308 89.2613 81.3298L87.5591 68.1471L87.5572 68.1288ZM90.661 67.7895L92.3591 80.9399C92.3908 81.1922 92.6315 81.4731 93.0555 81.4731H153.126C153.672 81.4731 153.98 81.0158 153.956 80.6993L152.258 67.5542L152.257 67.5481C152.225 67.2968 151.985 67.0156 151.561 67.0156H91.4909C90.9444 67.0156 90.6362 67.4726 90.661 67.7895Z" fill="black"/>
<path fill-rule="evenodd" clip-rule="evenodd" d="M98.3667 71.4673C98.3667 70.6043 99.0656 69.9048 99.9278 69.9048H123.126C123.988 69.9048 124.687 70.6043 124.687 71.4673C124.687 72.3302 123.988 73.0298 123.126 73.0298H99.9278C99.0656 73.0298 98.3667 72.3302 98.3667 71.4673Z" fill="black"/>
<path fill-rule="evenodd" clip-rule="evenodd" d="M98.771 76.4502C98.771 75.5873 99.4699 74.8877 100.332 74.8877H112.237C113.099 74.8877 113.798 75.5873 113.798 76.4502C113.798 77.3131 113.099 78.0127 112.237 78.0127H100.332C99.4699 78.0127 98.771 77.3131 98.771 76.4502Z" fill="black"/>
<path d="M139.931 74.2779L142.652 76.5863L145.577 71.9021" fill="#FDF3E8"/>
<path fill-rule="evenodd" clip-rule="evenodd" d="M146.406 70.5771C147.137 71.0346 147.359 71.9986 146.902 72.7303L143.977 77.4145C143.737 77.7991 143.341 78.0603 142.893 78.1301C142.446 78.1999 141.99 78.0715 141.644 77.7782L138.923 75.4699C138.265 74.9119 138.184 73.9259 138.741 73.2676C139.299 72.6093 140.284 72.528 140.942 73.0859L142.286 74.2265L144.255 71.0738C144.712 70.3421 145.675 70.1197 146.406 70.5771Z" fill="black"/>
<path d="M93.8053 103.062C93.9412 104.148 94.8937 104.963 96.0501 104.963H156.121C157.55 104.963 158.638 103.741 158.502 102.451L156.801 89.2816C156.665 88.1955 155.712 87.3809 154.556 87.3809H94.4854C93.0572 87.3809 91.9688 88.6025 92.1047 89.8922L93.8053 103.062Z" fill="#FDF3E8"/>
<path fill-rule="evenodd" clip-rule="evenodd" d="M90.5513 90.0561C90.3129 87.7934 92.1807 85.8184 94.4845 85.8184H154.555C156.443 85.8184 158.106 87.1648 158.348 89.084C158.349 89.0851 158.349 89.0863 158.349 89.0874L160.052 102.269L160.053 102.287C160.292 104.55 158.424 106.525 156.12 106.525H96.0491C94.1614 106.525 92.4977 105.179 92.2558 103.26C92.2557 103.259 92.2555 103.257 92.2554 103.256L90.5532 90.0743L90.5513 90.0561ZM93.6551 89.7167L95.3533 102.868C95.3847 103.119 95.6252 103.4 96.0491 103.4H156.12C156.666 103.4 156.974 102.943 156.95 102.626L155.252 89.482L155.251 89.4758C155.22 89.2245 154.979 88.9434 154.555 88.9434H94.4845C93.9385 88.9434 93.6304 89.4004 93.6551 89.7167Z" fill="black"/>
<path fill-rule="evenodd" clip-rule="evenodd" d="M100.679 93.4624C100.679 92.5995 101.378 91.8999 102.24 91.8999H125.438C126.3 91.8999 126.999 92.5995 126.999 93.4624C126.999 94.3253 126.3 95.0249 125.438 95.0249H102.24C101.378 95.0249 100.679 94.3253 100.679 93.4624Z" fill="black"/>
<path fill-rule="evenodd" clip-rule="evenodd" d="M101.089 98.377C101.089 97.514 101.788 96.8145 102.65 96.8145H114.555C115.418 96.8145 116.117 97.514 116.117 98.377C116.117 99.2399 115.418 99.9395 114.555 99.9395H102.65C101.788 99.9395 101.089 99.2399 101.089 98.377Z" fill="black"/>
<path d="M142.721 96.2048L145.51 98.5126L148.367 93.8965" fill="#FDF3E8"/>
<path fill-rule="evenodd" clip-rule="evenodd" d="M149.19 92.5685C149.923 93.023 150.149 93.9861 149.695 94.7196L146.837 99.3358C146.6 99.7195 146.208 99.9816 145.763 100.055C145.318 100.128 144.863 100.005 144.516 99.7171L141.727 97.4093C141.062 96.8595 140.969 95.8746 141.518 95.2095C142.067 94.5444 143.051 94.4509 143.716 95.0008L145.126 96.1674L147.041 93.0737C147.495 92.3402 148.457 92.114 149.19 92.5685Z" fill="black"/>
<path d="M77.2054 65.7249C75.9811 53.9806 65.4362 44.4766 53.6671 44.4766C41.8979 44.4766 33.3261 53.9806 34.6187 65.7249C35.9113 77.469 46.3879 86.9729 58.1572 86.9729C69.9263 86.9729 78.4297 77.469 77.2054 65.7249Z" fill="#37AF80"/>
<path fill-rule="evenodd" clip-rule="evenodd" d="M33.0658 65.896C31.6708 53.2212 40.9722 42.9141 53.6658 42.9141C66.2349 42.9141 77.4495 53.0231 78.7568 65.5627C80.0764 78.2216 70.8587 88.5354 58.1559 88.5354C45.5793 88.5354 34.4443 78.4208 33.0658 65.896ZM53.6658 46.0391C42.8211 46.0391 34.9789 54.7399 36.1691 65.5538L34.6175 65.7249L36.1691 65.5538C37.3758 76.5173 47.1939 85.4104 58.1559 85.4104C68.9914 85.4104 76.7805 76.7165 75.6515 65.887C74.5101 54.938 64.635 46.0391 53.6658 46.0391Z" fill="black"/>
<path d="M133.949 47.7664L212.678 72.0061L220.448 46.5731L141.719 22.3335L133.949 47.7664Z" fill="#BA9C80"/>
<path fill-rule="evenodd" clip-rule="evenodd" d="M141.069 21.1085C141.394 20.936 141.774 20.8998 142.125 21.0081L220.854 45.2477C221.585 45.4726 221.995 46.247 221.772 46.9784L214.002 72.4114C213.894 72.7634 213.651 73.0582 213.326 73.2307C213.002 73.4032 212.621 73.4394 212.27 73.3311L133.541 49.0914C132.81 48.8665 132.4 48.0921 132.623 47.3607L140.393 21.9278C140.501 21.5758 140.744 21.281 141.069 21.1085ZM142.637 24.0668L135.677 46.8479L211.758 70.2724L218.718 47.4912L142.637 24.0668Z" fill="black"/>
<path d="M126.178 73.1988L204.907 97.4386L212.677 72.006L133.948 47.7661L126.178 73.1988Z" fill="#BA9C80"/>
<path fill-rule="evenodd" clip-rule="evenodd" d="M133.298 46.5414C133.623 46.3688 134.003 46.3327 134.355 46.4409L213.084 70.6808C213.814 70.9057 214.225 71.68 214.001 72.4114L206.231 97.8441C206.124 98.1961 205.881 98.4908 205.556 98.6634C205.231 98.8359 204.851 98.872 204.499 98.7638L125.77 74.524C125.04 74.2992 124.629 73.5248 124.853 72.7934L132.623 47.3607C132.73 47.0087 132.973 46.7139 133.298 46.5414ZM134.866 49.4997L127.907 72.2806L203.988 95.7051L210.948 72.9242L134.866 49.4997Z" fill="black"/>
<path d="M110.638 124.065L189.367 148.304L204.907 97.4386L126.178 73.1988L110.638 124.065Z" fill="#BA9C80"/>
<path fill-rule="evenodd" clip-rule="evenodd" d="M125.528 71.9742C125.853 71.8017 126.233 71.7656 126.584 71.8738L205.313 96.1136C206.044 96.3385 206.454 97.1128 206.231 97.8442L190.691 148.71C190.583 149.062 190.34 149.357 190.015 149.529C189.691 149.702 189.31 149.738 188.959 149.63L110.23 125.39C109.499 125.165 109.089 124.391 109.312 123.659L124.852 72.7936C124.96 72.4415 125.203 72.1468 125.528 71.9742ZM127.096 74.9325L112.366 123.147L188.447 146.571L203.177 98.357L127.096 74.9325Z" fill="black"/>
<path d="M140.479 133.252L159.526 139.117L175.066 88.2512L156.019 82.3867L140.479 133.252Z" fill="#FED42B"/>
<path fill-rule="evenodd" clip-rule="evenodd" d="M155.37 81.1617C155.695 80.9892 156.075 80.9531 156.427 81.0613L175.474 86.9257C176.204 87.1506 176.615 87.925 176.391 88.6564L160.851 139.522C160.744 139.874 160.501 140.169 160.176 140.341C159.851 140.514 159.471 140.55 159.119 140.442L140.072 134.577C139.342 134.353 138.931 133.578 139.155 132.847L154.695 81.981C154.802 81.629 155.045 81.3343 155.37 81.1617ZM156.938 84.12L142.208 132.334L158.608 137.383L173.337 89.1692L156.938 84.12Z" fill="black"/>
<path d="M156.019 82.3865L175.066 88.2509L190.606 37.3854L171.559 31.521L156.019 82.3865Z" fill="#FED42B"/>
<path fill-rule="evenodd" clip-rule="evenodd" d="M170.911 30.296C171.236 30.1235 171.616 30.0873 171.968 30.1956L191.015 36.06C191.745 36.2848 192.156 37.0592 191.932 37.7906L176.392 88.6562C176.285 89.0082 176.042 89.303 175.717 89.4755C175.392 89.648 175.012 89.6842 174.66 89.5759L155.613 83.7115C154.883 83.4866 154.472 82.7122 154.696 81.9808L170.236 31.1153C170.343 30.7633 170.586 30.4685 170.911 30.296ZM172.479 33.2543L157.749 81.468L174.149 86.5172L188.878 38.3034L172.479 33.2543Z" fill="black"/>
<path d="M180.978 90.0712L132.555 92.1133L134.256 131.325L182.679 129.283L180.978 90.0712Z" fill="#29C489"/>
<path fill-rule="evenodd" clip-rule="evenodd" d="M131.171 92.1718C131.138 91.4068 131.731 90.7605 132.495 90.7283L180.919 88.6862C181.683 88.654 182.33 89.248 182.363 90.013L184.064 129.225C184.097 129.99 183.504 130.636 182.74 130.668L134.316 132.71C133.552 132.743 132.905 132.148 132.872 131.383L131.171 92.1718ZM133.999 93.4403L135.58 129.882L181.236 127.956L179.655 91.515L133.999 93.4403Z" fill="black"/>
<path fill-rule="evenodd" clip-rule="evenodd" d="M164.506 112.573C165.059 113.101 165.081 113.978 164.553 114.533C160.814 118.46 155.159 118.697 151.097 115.101C150.524 114.594 150.471 113.718 150.977 113.144C151.484 112.571 152.36 112.517 152.933 113.024C155.881 115.633 159.839 115.465 162.547 112.62C163.075 112.065 163.952 112.044 164.506 112.573Z" fill="black"/>
<path d="M148.853 108.355C149.938 108.309 150.78 107.39 150.733 106.303C150.686 105.215 149.768 104.371 148.682 104.417C147.597 104.462 146.755 105.381 146.802 106.469C146.849 107.556 147.768 108.401 148.853 108.355Z" fill="black"/>
<path d="M157.693 111.566C158.778 111.52 159.62 110.601 159.573 109.514C159.526 108.426 158.607 107.582 157.522 107.628C156.437 107.673 155.595 108.592 155.642 109.68C155.689 110.767 156.607 111.612 157.693 111.566Z" fill="black"/>
<path d="M166.38 107.616C167.466 107.57 168.307 106.651 168.26 105.564C168.213 104.476 167.295 103.632 166.209 103.677C165.124 103.723 164.282 104.642 164.33 105.729C164.377 106.817 165.295 107.661 166.38 107.616Z" fill="black"/>
<path d="M188.307 60.167C188.307 60.167 202.117 66.5484 202.797 66.9554C203.478 67.363 197.559 123.64 197.559 123.64L192.661 125.337L181.164 112.032L167.49 104.293L161.436 90.7153L162.456 82.7732L188.307 60.167Z" fill="#FED5BD"/>
<path d="M192.32 54.5334C194.089 52.5647 194.838 49.8492 194.498 47.2695C194.225 45.1651 193.749 42.5855 193.273 40.6168C191.232 32.8778 192.117 24.46 195.722 17.332C196.675 15.3633 197.899 13.4626 199.94 12.5801C201.165 12.037 202.661 11.9691 203.886 12.6479C206.198 13.9377 206.198 16.9247 206.13 19.3686C205.791 27.447 206.13 35.729 208.784 43.3322C210.553 48.5594 213.41 53.4471 215.179 58.6745C215.179 58.742 215.247 58.81 215.247 58.878C217.22 64.5803 218.036 70.5542 217.832 76.596C217.696 80.7371 217.968 86.1679 219.873 89.7659C220.145 90.309 220.689 90.784 221.165 91.2591C229.781 99.7366 241.511 110.794 254.35 121.197C254.35 121.197 230.871 127.307 211.371 148.125C204.063 138.847 196.433 128.129 191.912 122.691C191.912 122.691 188.035 118.685 183.885 117.395C179.735 116.106 175.381 114.815 171.367 113.526L170.755 113.39C166.878 112.372 163.204 110.81 159.802 108.706C157.829 107.484 156.197 105.448 155.312 103.004C155.108 102.461 154.904 101.918 154.768 101.375C153.407 97.437 158.306 87.3901 159.394 86.2359C161.095 84.4032 163.544 83.4525 166.061 83.656L185.041 85.3533C186.198 85.2853 187.286 85.9644 187.967 87.0505C188.715 88.2047 188.851 89.6299 188.375 90.9201C187.831 92.5493 186.81 93.907 185.518 94.7896C184.837 95.2647 184.157 95.5362 183.341 95.7397C180.688 96.3508 175.109 97.6405 168.102 96.4189" fill="#FED5BD"/>
<path fill-rule="evenodd" clip-rule="evenodd" d="M203.127 14.014C202.417 13.6209 201.448 13.6203 200.572 14.0087L200.558 14.0144C199.067 14.6593 198.052 16.1011 197.127 18.013C197.123 18.0213 197.118 18.0296 197.114 18.0378C193.682 24.8235 192.838 32.8482 194.782 40.218C194.784 40.2284 194.787 40.2387 194.79 40.2491C195.279 42.274 195.766 44.9086 196.045 47.0672C196.045 47.0678 196.045 47.0683 196.045 47.0688L194.497 47.2695L196.045 47.0653C196.045 47.0659 196.045 47.0666 196.045 47.0672C196.439 50.064 195.577 53.2447 193.481 55.5783C192.904 56.2199 191.917 56.2723 191.276 55.6952C190.635 55.1181 190.583 54.1302 191.159 53.4886C192.6 51.8851 193.234 49.6358 192.95 47.4737L192.949 47.4702C192.685 45.4257 192.22 42.9098 191.759 40.9997C191.76 41.005 191.762 41.0103 191.763 41.0156L193.272 40.6168L191.755 40.9845C191.756 40.9896 191.758 40.9946 191.759 40.9997C189.627 32.9004 190.552 24.1013 194.323 16.6385C194.321 16.6427 194.319 16.6468 194.317 16.651L195.722 17.332L194.329 16.6262C194.327 16.6303 194.325 16.6344 194.323 16.6385C195.302 14.6176 196.733 12.2675 199.314 11.1485C199.311 11.1495 199.309 11.1505 199.307 11.1514L199.939 12.5801L199.32 11.1457C199.318 11.1466 199.316 11.1476 199.314 11.1485C200.886 10.4535 202.906 10.3186 204.642 11.2811L204.645 11.283C206.313 12.2132 207.079 13.7446 207.421 15.2232C207.753 16.6587 207.724 18.2078 207.69 19.4121L207.69 19.4343C207.353 27.4468 207.701 35.4936 210.257 42.817L210.262 42.8309C211.116 45.3556 212.238 47.8114 213.4 50.3529L213.416 50.3866C214.562 52.8922 215.746 55.4828 216.657 58.1734C216.659 58.1816 216.662 58.1897 216.665 58.198C216.675 58.2214 216.686 58.2484 216.697 58.2782C216.715 58.3259 216.737 58.3908 216.757 58.4701C218.771 64.3357 219.6 70.4658 219.391 76.6474C219.256 80.7819 219.558 85.8354 221.251 89.0343C221.255 89.0408 221.258 89.0474 221.262 89.054C221.264 89.0577 221.265 89.0613 221.267 89.0649C221.305 89.1407 221.393 89.2679 221.583 89.4714C221.713 89.6106 221.833 89.7278 221.977 89.868C222.062 89.9506 222.155 90.041 222.263 90.1486C230.861 98.6078 242.549 109.625 255.332 119.983C255.79 120.354 256 120.951 255.875 121.528C255.751 122.104 255.312 122.561 254.742 122.71L254.742 122.71L254.733 122.712L254.689 122.724C254.649 122.735 254.587 122.752 254.504 122.775C254.338 122.822 254.087 122.895 253.758 122.995C253.1 123.196 252.13 123.508 250.902 123.948C248.446 124.829 244.959 126.22 240.867 128.254C232.679 132.324 222.1 138.954 212.51 149.193C212.199 149.526 211.758 149.705 211.304 149.686C210.85 149.666 210.427 149.45 210.145 149.092C206.681 144.695 203.147 139.978 199.916 135.665C199.725 135.41 199.536 135.157 199.347 134.906C195.974 130.403 192.979 126.422 190.753 123.74C190.737 123.724 190.716 123.703 190.69 123.677C190.676 123.663 190.66 123.648 190.644 123.631C190.54 123.529 190.384 123.379 190.182 123.193C189.778 122.82 189.197 122.308 188.494 121.758C187.061 120.639 185.23 119.45 183.422 118.888C181.885 118.41 180.31 117.929 178.73 117.447C176.1 116.644 173.458 115.838 170.959 115.036L170.417 114.916C170.398 114.912 170.378 114.907 170.358 114.902C166.335 113.845 162.517 112.223 158.981 110.035L158.98 110.035C156.689 108.615 154.843 106.29 153.847 103.545C153.846 103.542 153.845 103.539 153.844 103.536L153.833 103.508C153.646 103.009 153.426 102.422 153.269 101.817C152.818 100.447 152.937 98.7749 153.229 97.2211C153.537 95.586 154.088 93.8318 154.702 92.2083C155.318 90.579 156.013 89.0405 156.628 87.8275C156.936 87.2212 157.229 86.6849 157.488 86.2525C157.724 85.8589 157.992 85.448 158.253 85.169C160.281 82.9852 163.198 81.857 166.186 82.0986L166.199 82.0997L185.077 83.7878C186.876 83.7347 188.397 84.8042 189.283 86.2104C190.298 87.7849 190.476 89.7131 189.848 91.4379C189.2 93.3601 187.984 94.9945 186.403 96.0759C185.532 96.6832 184.666 97.0195 183.718 97.2559C183.709 97.2582 183.699 97.2603 183.69 97.2624L183.665 97.2683C180.96 97.8914 175.14 99.232 167.834 97.9582C166.984 97.8101 166.416 97.0009 166.564 96.1507C166.711 95.3006 167.52 94.7315 168.369 94.8795C175.041 96.0428 180.357 94.8235 182.975 94.2205C183.65 94.0511 184.14 93.846 184.624 93.5083L184.637 93.4988C185.633 92.8192 186.452 91.7486 186.894 90.4246C186.899 90.4092 186.905 90.3939 186.91 90.3786C187.222 89.5327 187.126 88.6257 186.657 87.9009C186.652 87.8942 186.648 87.8875 186.644 87.8808C186.188 87.1528 185.586 86.8864 185.132 86.9131C185.056 86.9176 184.979 86.9164 184.902 86.9096L165.935 85.2135C165.933 85.2133 165.93 85.2131 165.928 85.2129C163.886 85.0499 161.909 85.8215 160.537 87.2992L160.531 87.3064C160.529 87.3093 160.496 87.3476 160.431 87.4418C160.36 87.5442 160.271 87.6832 160.165 87.86C159.953 88.2134 159.696 88.6821 159.412 89.2416C158.845 90.36 158.197 91.7958 157.622 93.3146C157.046 94.8394 156.559 96.4073 156.297 97.7996C156.025 99.2472 156.04 100.278 156.243 100.864C156.258 100.907 156.271 100.951 156.282 100.995C156.392 101.436 156.563 101.894 156.773 102.454L156.78 102.472C157.554 104.61 158.971 106.354 160.623 107.377C163.88 109.392 167.401 110.891 171.122 111.871L171.704 112C171.751 112.011 171.798 112.023 171.844 112.038C174.347 112.842 176.968 113.642 179.602 114.446C181.187 114.93 182.777 115.415 184.347 115.903C186.689 116.631 188.871 118.089 190.415 119.295C191.199 119.908 191.847 120.478 192.3 120.896C192.526 121.106 192.706 121.278 192.83 121.4C192.892 121.462 192.941 121.51 192.975 121.544C192.992 121.562 193.005 121.575 193.015 121.585L193.027 121.597L193.03 121.601L193.032 121.602L193.032 121.603C193.033 121.603 193.033 121.603 191.912 122.691L193.033 121.603C193.06 121.632 193.086 121.661 193.112 121.691C195.403 124.448 198.467 128.523 201.845 133.031C202.031 133.28 202.219 133.53 202.408 133.782C205.297 137.638 208.406 141.789 211.487 145.741C221.054 135.907 231.406 129.468 239.478 125.455C243.694 123.359 247.295 121.922 249.85 121.006C250.304 120.844 250.724 120.697 251.11 120.567C239.104 110.671 228.198 100.37 220.071 92.3734L220.063 92.3658C220.01 92.3129 219.945 92.2492 219.872 92.1789C219.696 92.0073 219.48 91.7962 219.301 91.6047C219.035 91.3196 218.719 90.9435 218.486 90.4841C216.376 86.4873 216.135 80.6878 216.271 76.5448L216.271 76.5432C216.469 70.6778 215.676 64.8966 213.771 59.3894C213.767 59.3774 213.763 59.3654 213.759 59.3533C213.749 59.3306 213.739 59.3046 213.728 59.276C213.709 59.2246 213.686 59.1576 213.666 59.0779C212.816 56.5875 211.709 54.1623 210.561 51.6537L210.544 51.6163C209.4 49.114 208.217 46.5271 207.307 43.8405C204.56 35.9631 204.228 27.4525 204.57 19.314C204.604 18.0785 204.608 16.9162 204.379 15.9278C204.16 14.9804 203.771 14.3737 203.127 14.014Z" fill="black"/>
<path d="M163.273 84.3346L156.538 80.126C153.885 78.4968 151.844 75.8489 150.62 72.5904C150.347 71.9118 150.143 71.1647 149.871 70.4861C148.443 66.345 151.164 54.7369 154.566 49.0343C155.654 47.2014 157.763 46.183 159.872 46.3867L189.737 49.3737C191.233 49.3058 192.662 50.1204 193.547 51.6139C194.499 53.1074 194.703 55.0079 194.091 56.6371C193.342 58.81 192.05 60.5747 190.349 61.7289C189.465 62.34 188.512 62.747 187.492 62.9505C184.022 63.7652 172.865 66.209 165.314 64.1727" fill="#FED5BD"/>
<path fill-rule="evenodd" clip-rule="evenodd" d="M159.72 47.942C158.188 47.795 156.674 48.5426 155.908 49.8329L155.907 49.8355C154.32 52.4948 152.837 56.649 151.931 60.6883C151.481 62.6954 151.184 64.628 151.082 66.2847C150.98 67.9589 151.089 69.2011 151.337 69.945C151.483 70.3146 151.609 70.6924 151.72 71.0238L151.726 71.043C151.848 71.4077 151.953 71.7194 152.069 72.0081C152.073 72.0189 152.077 72.0297 152.081 72.0406C153.205 75.0302 155.045 77.3759 157.355 78.7944L157.365 78.8008L164.101 83.0094C164.832 83.4663 165.055 84.4302 164.598 85.1622C164.142 85.8942 163.179 86.1172 162.447 85.6602L155.722 81.4581C155.721 81.457 155.719 81.4559 155.717 81.4549C152.728 79.6175 150.491 76.6749 149.165 73.1566C149.014 72.7792 148.885 72.392 148.772 72.0533L148.765 72.034C148.644 71.6693 148.539 71.3576 148.423 71.0689C148.414 71.0449 148.404 71.0207 148.396 70.9962C147.937 69.6657 147.855 67.9155 147.966 66.0941C148.08 64.2314 148.408 62.1292 148.885 60.0037C149.832 55.7786 151.41 51.2782 153.225 48.2348C154.636 45.8608 157.338 44.5724 160.022 44.8317L160.028 44.8322L160.028 44.8322L189.789 47.8088C191.881 47.7611 193.759 48.9241 194.877 50.7951C196.074 52.6868 196.336 55.0818 195.56 57.1664C194.716 59.6055 193.238 61.6551 191.231 63.0188C190.186 63.7397 189.048 64.23 187.824 64.4777C186.056 64.8924 182.344 65.7179 178.105 66.1841C173.881 66.6486 168.97 66.7768 164.909 65.6817C164.076 65.4572 163.583 64.5997 163.808 63.7665C164.032 62.9333 164.889 62.4398 165.721 62.6643C169.211 63.6054 173.654 63.5298 177.764 63.0778C181.838 62.6297 185.424 61.8314 187.136 61.4296C187.153 61.4256 187.17 61.4218 187.187 61.4184C187.993 61.2578 188.748 60.9373 189.462 60.4435L189.473 60.4358C190.86 59.4948 191.962 58.0238 192.616 56.128C192.62 56.1144 192.625 56.1008 192.63 56.0874C193.066 54.9264 192.924 53.5404 192.231 52.4548C192.222 52.4403 192.213 52.4257 192.204 52.4109C191.573 51.3446 190.652 50.8965 189.808 50.9348C189.733 50.9382 189.657 50.9362 189.582 50.9287L159.722 47.9422C159.722 47.9422 159.721 47.9421 159.72 47.942Z" fill="black"/>
<path d="M162.117 96.5538L155.382 92.3452C152.729 90.716 150.688 88.0681 149.463 84.8096C149.191 84.131 148.987 83.3839 148.715 82.7053C147.287 78.5642 150.008 66.9561 153.409 61.2533C154.498 59.4205 156.607 58.4024 158.715 58.6059L188.58 61.5929C190.077 61.5248 191.506 62.3394 192.39 63.8332C193.343 65.3264 193.547 67.2277 192.935 68.8569C192.186 71.0292 190.894 72.7939 189.193 73.9481C188.309 74.5592 187.356 74.9662 186.336 75.1703C182.866 75.9849 171.709 78.4288 164.158 76.3919" fill="#FED5BD"/>
<path fill-rule="evenodd" clip-rule="evenodd" d="M158.564 60.1612C157.032 60.0143 155.518 60.7619 154.752 62.0519L154.75 62.0545C153.164 64.7139 151.681 68.8682 150.775 72.9075C150.324 74.9146 150.027 76.8472 149.926 78.5039C149.824 80.1781 149.933 81.4203 150.18 82.1642C150.327 82.5338 150.453 82.9116 150.564 83.243L150.57 83.2623C150.692 83.6269 150.797 83.9386 150.913 84.2273C150.917 84.2381 150.921 84.249 150.925 84.2598C152.048 87.2494 153.889 89.5951 156.199 91.0136L156.209 91.02L162.944 95.2286C163.676 95.6855 163.899 96.6494 163.442 97.3814C162.985 98.1134 162.022 98.3364 161.291 97.8794L154.566 93.6773C154.564 93.6762 154.562 93.6751 154.561 93.6741C151.572 91.8367 149.334 88.8941 148.009 85.3758C147.858 84.9984 147.729 84.6111 147.616 84.2724L147.609 84.2532C147.487 83.8885 147.383 83.5768 147.267 83.2881C147.257 83.2641 147.248 83.2399 147.24 83.2154C146.781 81.8849 146.699 80.1347 146.81 78.3133C146.924 76.4506 147.252 74.3484 147.728 72.2229C148.676 67.9977 150.254 63.4971 152.069 60.4537C153.479 58.0798 156.182 56.7918 158.866 57.0509L158.871 57.0514L158.871 57.0514L188.633 60.028C190.725 59.98 192.603 61.1432 193.721 63.0144C194.917 64.9059 195.18 67.3018 194.404 69.3863C193.56 71.8248 192.082 73.8744 190.075 75.2381C189.03 75.9589 187.892 76.4491 186.669 76.6974C184.901 77.1121 181.188 77.9376 176.948 78.4038C172.724 78.8683 167.814 78.9963 163.752 77.9008C162.92 77.6763 162.427 76.8188 162.651 75.9856C162.876 75.1524 163.732 74.659 164.565 74.8835C168.055 75.8248 172.498 75.7494 176.607 75.2975C180.682 74.8494 184.268 74.0512 185.98 73.6493C185.997 73.6454 186.013 73.6417 186.03 73.6383C186.836 73.4772 187.592 73.1565 188.307 72.6624L188.318 72.6551C189.704 71.7141 190.806 70.243 191.459 68.3476C191.464 68.3341 191.469 68.3205 191.474 68.3071C191.91 67.1461 191.767 65.7594 191.075 64.6743C191.066 64.6597 191.057 64.645 191.048 64.6301C190.416 63.5635 189.496 63.1156 188.652 63.154C188.576 63.1574 188.501 63.1554 188.426 63.1478L158.566 60.1614C158.565 60.1614 158.565 60.1613 158.564 60.1612Z" fill="black"/>
<path d="M163.001 106.126L156.742 102.256C154.293 100.763 152.388 98.2511 151.232 95.2642C151.028 94.6531 150.756 93.9746 150.552 93.2954C149.259 89.4259 151.776 78.6999 154.905 73.4051C155.926 71.7079 157.831 70.7578 159.804 70.9613L187.492 73.7447C188.852 73.6767 190.213 74.4913 191.029 75.781C191.913 77.2067 192.118 78.9039 191.574 80.4651C190.893 82.5019 189.669 84.1312 188.104 85.2173C187.287 85.7604 186.403 86.1674 185.451 86.3715C182.254 87.1861 171.913 89.4259 164.838 87.5251" fill="#FED5BD"/>
<path fill-rule="evenodd" clip-rule="evenodd" d="M156.244 74.2061C154.793 76.664 153.429 80.4954 152.592 84.2272C152.176 86.0821 151.9 87.8674 151.803 89.3982C151.704 90.9691 151.804 92.1223 152.031 92.7999C152.036 92.8151 152.041 92.8304 152.045 92.8458C152.164 93.2405 152.282 93.5637 152.409 93.914C152.5 94.1618 152.595 94.4231 152.699 94.7328C153.76 97.4563 155.466 99.6491 157.553 100.922L157.561 100.927L163.82 104.796C164.554 105.25 164.781 106.213 164.328 106.947C163.875 107.681 162.913 107.909 162.179 107.455L155.929 103.591C155.927 103.59 155.926 103.589 155.925 103.588C153.124 101.879 151.027 99.0621 149.775 95.8288C149.766 95.8058 149.758 95.7826 149.75 95.7591C149.697 95.5996 149.62 95.3861 149.534 95.1471C149.378 94.7149 149.193 94.1992 149.062 93.7673C148.649 92.5132 148.581 90.8846 148.687 89.2011C148.797 87.4671 149.103 85.5144 149.546 83.5423C150.425 79.6228 151.884 75.4466 153.56 72.6096L153.566 72.5995C154.9 70.3822 157.388 69.1423 159.96 69.4068C159.961 69.4069 159.962 69.407 159.962 69.407L187.541 72.1794C189.525 72.1333 191.317 73.3176 192.347 74.9446L192.354 74.957C193.477 76.767 193.75 78.9509 193.05 80.9702C192.268 83.3035 190.847 85.2137 188.992 86.5013C188.984 86.5072 188.975 86.513 188.967 86.5187C188.026 87.1445 186.972 87.6386 185.807 87.8928C184.151 88.3136 180.708 89.0878 176.767 89.5198C172.836 89.9507 168.252 90.0605 164.432 89.0342C163.599 88.8105 163.105 87.9535 163.329 87.1201C163.552 86.2866 164.409 85.7923 165.241 86.0161C168.496 86.8906 172.619 86.8308 176.427 86.4134C180.203 85.9995 183.512 85.2527 185.064 84.8573C185.084 84.8524 185.103 84.8478 185.123 84.8436C185.846 84.6887 186.546 84.3749 187.226 83.9246C188.492 83.0415 189.514 81.6998 190.092 79.9695L190.098 79.9504C190.481 78.8523 190.346 77.6485 189.706 76.6114C189.125 75.6982 188.253 75.271 187.568 75.3053C187.49 75.3092 187.412 75.3072 187.334 75.2994L159.646 72.516L159.642 72.5156C158.271 72.3741 156.952 73.0325 156.244 74.2061Z" fill="black"/>
<path d="M175.789 114.883C174.224 114.408 172.727 113.933 171.23 113.458L170.618 113.322C166.741 112.304 163.067 110.742 159.666 108.638C157.693 107.416 156.06 105.379 155.176 102.935C154.972 102.392 154.767 101.849 154.631 101.306C153.271 97.369 158.169 87.3215 159.257 86.1679C160.958 84.3346 163.407 83.3845 165.924 83.588L184.905 85.2853C186.061 85.2173 187.15 85.8964 187.83 86.9825C188.578 88.1362 188.715 89.5619 188.238 90.8521C187.694 92.4813 186.674 93.839 185.381 94.7211C184.701 95.1967 184.02 95.4682 183.204 95.6717C180.551 96.2828 174.972 97.5725 167.965 96.3503" fill="#FED5BD"/>
<path fill-rule="evenodd" clip-rule="evenodd" d="M165.793 85.1451C163.75 84.9818 161.773 85.7531 160.402 87.2312L160.393 87.2408C160.394 87.2393 160.395 87.2385 160.395 87.2386C160.395 87.2387 160.363 87.2762 160.295 87.3739C160.225 87.4763 160.135 87.6152 160.029 87.7921C159.818 88.1453 159.56 88.614 159.277 89.1735C158.71 90.2918 158.061 91.7276 157.486 93.2464C156.91 94.7712 156.424 96.3391 156.162 97.7314C155.889 99.179 155.905 100.21 156.107 100.795C156.122 100.838 156.135 100.882 156.146 100.926C156.257 101.367 156.427 101.825 156.637 102.386L156.644 102.403C157.418 104.542 158.836 106.286 160.487 107.309C163.745 109.325 167.266 110.823 170.986 111.803L171.569 111.933C171.614 111.943 171.659 111.955 171.703 111.968C173.201 112.444 174.689 112.916 176.243 113.389C177.068 113.639 177.533 114.512 177.283 115.338C177.032 116.163 176.16 116.629 175.335 116.379C173.783 115.907 172.299 115.436 170.825 114.968L170.28 114.847C170.261 114.843 170.242 114.838 170.223 114.833C166.199 113.777 162.382 112.155 158.845 109.967L158.845 109.966C156.553 108.547 154.707 106.221 153.712 103.477L153.698 103.439C153.51 102.94 153.29 102.353 153.134 101.749C152.683 100.379 152.801 98.7067 153.093 97.1529C153.401 95.5178 153.953 93.7636 154.566 92.1402C155.183 90.5108 155.877 88.9724 156.492 87.7593C156.8 87.1531 157.093 86.6168 157.352 86.1844C157.588 85.7909 157.856 85.38 158.118 85.101C160.146 82.9165 163.063 81.7892 166.051 82.0307L166.064 82.0318L184.942 83.7199C186.74 83.6669 188.262 84.7357 189.147 86.1424C190.163 87.7166 190.34 89.6454 189.712 91.3701C189.065 93.2918 187.849 94.9262 186.268 96.0072C185.396 96.6153 184.53 96.9516 183.582 97.188C183.573 97.1903 183.564 97.1925 183.555 97.1946L183.529 97.2005C180.824 97.8235 175.004 99.1641 167.698 97.8897C166.848 97.7416 166.28 96.9323 166.428 96.0822C166.576 95.2321 167.384 94.663 168.234 94.8111C174.906 95.975 180.222 94.7554 182.84 94.1524C183.515 93.9831 184.004 93.778 184.487 93.4403L184.502 93.4301C185.497 92.7511 186.316 91.6807 186.758 90.3568C186.763 90.3413 186.769 90.326 186.775 90.3107C187.087 89.4647 186.991 88.5573 186.521 87.8333C186.517 87.8264 186.512 87.8194 186.508 87.8124C186.052 87.0852 185.451 86.8185 184.997 86.8452C184.92 86.8497 184.843 86.8486 184.766 86.8417L165.793 85.1451Z" fill="black"/>
</svg>
