<svg width="38" height="38" viewBox="0 0 38 38" fill="none" xmlns="http://www.w3.org/2000/svg">
<path d="M28.5 13.0625H24.9375V15.4375H28.5V13.0625Z" fill="white"/>
<path d="M9.5 17.8125H13.0625V20.1875H9.5V17.8125Z" fill="white"/>
<path d="M23.75 24.9375V22.5625H14.25V24.9375H23.75Z" fill="white"/>
<path d="M17.8125 17.8125H14.25V20.1875H17.8125V17.8125Z" fill="white"/>
<path d="M22.5625 17.8125H19V20.1875H22.5625V17.8125Z" fill="white"/>
<path d="M28.5 17.8125H23.75V20.1875H28.5V17.8125Z" fill="white"/>
<path d="M19 13.0625H15.4375V15.4375H19V13.0625Z" fill="white"/>
<path d="M14.25 13.0625H9.5V15.4375H14.25V13.0625Z" fill="white"/>
<path d="M23.75 13.0625H20.1875V15.4375H23.75V13.0625Z" fill="white"/>
<path fill-rule="evenodd" clip-rule="evenodd" d="M23.1562 7.125C27.0435 7.125 28.9871 7.125 30.4149 7.99997C31.2138 8.48949 31.8855 9.16123 32.375 9.9601C33.25 11.3879 33.25 13.3315 33.25 17.2188V20.7812C33.25 24.6685 33.25 26.6121 32.375 28.0399C31.8855 28.8388 31.2138 29.5105 30.4149 30C28.9871 30.875 27.0435 30.875 23.1562 30.875H14.8438C10.9565 30.875 9.01294 30.875 7.5851 30C6.78623 29.5105 6.11449 28.8388 5.62497 28.0399C4.75 26.6121 4.75 24.6685 4.75 20.7812V17.2188C4.75 13.3315 4.75 11.3879 5.62497 9.9601C6.11449 9.16123 6.78623 8.48949 7.5851 7.99997C9.01294 7.125 10.9565 7.125 14.8438 7.125H23.1562ZM30.875 17.2188V20.7812C30.875 22.7708 30.8725 24.0963 30.7763 25.108C30.6835 26.0844 30.5204 26.5209 30.35 26.7989C30.0563 27.2783 29.6533 27.6813 29.1739 27.975C28.8959 28.1454 28.4594 28.3085 27.483 28.4013C26.4713 28.4975 25.1458 28.5 23.1562 28.5H14.8438C12.8542 28.5 11.5287 28.4975 10.517 28.4013C9.54059 28.3085 9.10412 28.1454 8.82609 27.975C8.34671 27.6813 7.94373 27.2783 7.65004 26.7989C7.47957 26.5209 7.31649 26.0844 7.22372 25.108C7.12746 24.0963 7.125 22.7708 7.125 20.7812V17.2188C7.125 15.2292 7.12746 13.9037 7.22372 12.892C7.31649 11.9156 7.47957 11.4791 7.65004 11.2011C7.94373 10.7217 8.34671 10.3187 8.82609 10.025C9.10412 9.85457 9.54059 9.69149 10.517 9.59872C11.5287 9.50246 12.8542 9.5 14.8438 9.5H23.1562C25.1458 9.5 26.4713 9.50246 27.483 9.59872C28.4594 9.69149 28.8959 9.85457 29.1739 10.025C29.6533 10.3187 30.0563 10.7217 30.35 11.2011C30.5204 11.4791 30.6835 11.9156 30.7763 12.892C30.8725 13.9037 30.875 15.2292 30.875 17.2188Z" fill="white"/>
</svg>
