<svg width="52" height="52" viewBox="0 0 52 52" fill="none" xmlns="http://www.w3.org/2000/svg">
<circle cx="23" cy="23" r="23" transform="matrix(-1 0 0 1 49 3)" stroke="#BF6700" stroke-width="4.5"/>
<path d="M41.1094 22.3247L31.1685 31.6809C30.8902 31.9428 30.5225 32.0886 30.1404 32.0886H28.0294V29.3827H26V27.3533L23.2941 26.6768L22.6176 24.6474L19.2353 21.9415V26.6768L16.5294 27.3533L17.8824 29.3827L16.5294 31.4121H15.1765V34.118L12.0576 32.7814C11.2094 32.4178 10.8875 31.3819 11.3803 30.6016L18.4695 19.377C18.5289 19.2831 18.5985 19.196 18.6771 19.1174L28.3217 9.47277C28.9075 8.88698 29.8572 8.88698 30.443 9.47277L41.142 20.1718C41.7404 20.7701 41.7256 21.7447 41.1094 22.3247Z" fill="#BF6700"/>
<circle cx="25.3235" cy="32.0886" r="0.676471" fill="#BF6700"/>
<circle cx="23.9706" cy="34.7937" r="0.676471" fill="#BF6700"/>
<circle cx="19.9118" cy="37.4997" r="0.676471" fill="#BF6700"/>
<circle cx="22.3471" cy="37.2291" r="0.405882" fill="#BF6700"/>
<circle cx="25.0529" cy="42.6412" r="0.405882" fill="#BF6700"/>
<circle cx="27.7588" cy="38.5826" r="0.405882" fill="#BF6700"/>
<circle cx="28.0294" cy="41.5593" r="0.676471" fill="#BF6700"/>
<circle cx="25.6618" cy="37.8379" r="1.01471" fill="#BF6700"/>
<circle cx="21.6029" cy="35.1319" r="1.01471" fill="#BF6700"/>
<circle cx="22.9559" cy="40.544" r="1.01471" fill="#BF6700"/>
<circle cx="27.3529" cy="34.1176" r="1.35294" fill="#BF6700"/>
<circle cx="21.9412" cy="31.4115" r="1.35294" fill="#BF6700"/>
</svg>
