<svg width="52" height="52" viewBox="0 0 52 52" fill="none" xmlns="http://www.w3.org/2000/svg">
<circle cx="23" cy="23" r="23" transform="matrix(-1 0 0 1 49 3)" stroke="#8D00A4" stroke-width="4.5"/>
<path d="M35.2157 39.7472L29.9534 33.5193V22.6023H30.6115C31.1575 22.6023 31.5998 22.1601 31.5998 21.6141C31.5998 21.0681 31.1575 20.6258 30.6115 20.6258H28.9651C28.4191 20.6258 27.9769 21.0681 27.9769 21.6141V33.8998C27.9768 34.1445 28.0677 34.3805 28.2318 34.5619L32.2579 39.421H19.7419L23.768 34.5619C23.9322 34.3804 24.023 34.1444 24.023 33.8998V21.6141C24.023 21.0681 23.5807 20.6259 23.0347 20.6259H21.3883C20.8423 20.6259 20.4001 21.0681 20.4001 21.6141C20.4001 22.1601 20.8423 22.6023 21.3883 22.6023H22.0465V33.5193L16.7841 39.7472C16.6561 39.8891 16.572 40.065 16.5418 40.2537C16.5117 40.4424 16.5368 40.6358 16.6141 40.8105C16.6918 40.9853 16.8184 41.1337 16.9788 41.2379C17.1391 41.3421 17.3262 41.3976 17.5174 41.3976H34.4824C34.6736 41.3976 34.8608 41.3421 35.0211 41.2379C35.1814 41.1337 35.3081 40.9853 35.3857 40.8105C35.5438 40.4538 35.4776 40.0367 35.2157 39.7472V39.7472ZM25.0117 19.6416C26.1007 19.6416 26.9832 18.7586 26.9832 17.67C26.9832 16.5825 26.1007 15.6995 25.0117 15.6995C23.9222 15.6995 23.0402 16.5825 23.0402 17.67C23.0402 18.7586 23.9222 19.6416 25.0117 19.6416ZM31.45 16.708C33.3761 16.708 34.9375 15.1535 34.9375 13.2363C34.9375 11.3191 33.3766 9.76465 31.45 9.76465C29.5245 9.76465 27.9626 11.3191 27.9626 13.2363C27.9626 15.1535 29.5245 16.708 31.45 16.708ZM31.4347 11.7352C32.2579 11.7352 32.9274 12.4017 32.9274 13.2215C32.9274 14.0407 32.2579 14.7078 31.4347 14.7078C30.6115 14.7078 29.942 14.0407 29.942 13.2215C29.9425 12.4017 30.6115 11.7352 31.4347 11.7352Z" fill="#8D00A4"/>
</svg>
