<svg width="52" height="52" viewBox="0 0 52 52" fill="none" xmlns="http://www.w3.org/2000/svg">
<circle cx="23" cy="23" r="23" transform="matrix(-1 0 0 1 49 3)" stroke="#0038FF" stroke-width="4.5"/>
<path d="M19.2353 35.3267V39.5106C19.2353 40.2435 19.5521 40.9464 20.1159 41.4646C20.6797 41.9829 21.4444 42.274 22.2418 42.274H29.7582C30.5555 42.274 31.3203 41.9829 31.8841 41.4646C32.4479 40.9464 32.7647 40.2435 32.7647 39.5106V35.3267C32.7647 31.5408 32.7647 29.1476 29.0065 26.3842V22.239H22.9935V26.3842C19.2353 29.1476 19.2353 31.5394 19.2353 35.3267ZM29.0065 15.9466C29.0065 17.4941 27.6611 18.7847 26 18.7847C24.3404 18.7847 22.9935 17.4941 22.9935 15.9466C22.9935 15.796 23.0205 15.6399 23.0656 15.4823C23.3512 14.4723 24.1134 13.6502 24.8184 12.8432L24.9988 12.6387C25.9895 11.3496 26 9.47091 26 9.80344C26 10.276 26.0105 11.351 27.0027 12.6387L27.1831 12.8432C27.8866 13.6502 28.6488 14.4723 28.9344 15.4823C28.9795 15.6399 29.0065 15.796 29.0065 15.9466Z" fill="#0038FF" stroke="#0038FF" stroke-width="1.5"/>
<path d="M20.5882 32.7644L21.807 32.155C21.8915 32.1127 21.9909 32.1127 22.0753 32.155L23.183 32.7088C23.2541 32.7444 23.3365 32.7502 23.412 32.7251L25.2056 32.1272C25.2811 32.102 25.3635 32.1079 25.4347 32.1435L26.5423 32.6973C26.6268 32.7395 26.7262 32.7395 26.8106 32.6973L27.8953 32.155C27.9797 32.1127 28.0791 32.1127 28.1636 32.155L29.2482 32.6973C29.3327 32.7395 29.4321 32.7395 29.5165 32.6973L30.5419 32.1846C30.6574 32.1268 30.7969 32.1495 30.8882 32.2408L31.4118 32.7644" stroke="white" stroke-width="0.9" stroke-linecap="round"/>
<path d="M20.5882 34.7937L21.807 34.1843C21.8915 34.142 21.9909 34.142 22.0753 34.1843L23.183 34.7381C23.2541 34.7737 23.3365 34.7795 23.412 34.7544L25.2056 34.1565C25.2811 34.1313 25.3635 34.1372 25.4347 34.1728L26.5423 34.7266C26.6268 34.7688 26.7262 34.7688 26.8106 34.7266L27.8953 34.1843C27.9797 34.142 28.0791 34.142 28.1636 34.1843L29.2482 34.7266C29.3327 34.7688 29.4321 34.7688 29.5165 34.7266L30.5419 34.2139C30.6574 34.1561 30.7969 34.1788 30.8882 34.2701L31.4118 34.7937" stroke="white" stroke-width="0.9" stroke-linecap="round"/>
<path d="M20.5882 36.8239L21.807 36.2145C21.8915 36.1723 21.9909 36.1723 22.0753 36.2145L23.183 36.7684C23.2541 36.8039 23.3365 36.8098 23.412 36.7846L25.2056 36.1868C25.2811 36.1616 25.3635 36.1675 25.4347 36.203L26.5423 36.7568C26.6268 36.7991 26.7262 36.7991 26.8106 36.7568L27.8953 36.2145C27.9797 36.1723 28.0791 36.1723 28.1636 36.2145L29.2482 36.7568C29.3327 36.7991 29.4321 36.7991 29.5165 36.7568L30.5419 36.2442C30.6574 36.1864 30.7969 36.209 30.8882 36.3004L31.4118 36.8239" stroke="white" stroke-width="0.9" stroke-linecap="round"/>
</svg>
