<svg width="42" height="42" viewBox="0 0 42 42" fill="none" xmlns="http://www.w3.org/2000/svg">
<path d="M18.4219 11.5469C18.4219 10.123 19.5761 8.96875 21 8.96875C22.4239 8.96875 23.5781 10.123 23.5781 11.5469C23.5781 12.9707 22.4239 14.125 21 14.125C19.5761 14.125 18.4219 12.9707 18.4219 11.5469ZM18.4219 21C18.4219 19.5761 19.5761 18.4219 21 18.4219C22.4239 18.4219 23.5781 19.5761 23.5781 21C23.5781 22.4239 22.4239 23.5781 21 23.5781C19.5761 23.5781 18.4219 22.4239 18.4219 21ZM21 27.875C19.5761 27.875 18.4219 29.0293 18.4219 30.4531C18.4219 31.877 19.5761 33.0312 21 33.0312C22.4239 33.0312 23.5781 31.877 23.5781 30.4531C23.5781 29.0293 22.4239 27.875 21 27.875Z" fill="#21201F"/>
</svg>
