<svg width="52" height="52" viewBox="0 0 52 52" fill="none" xmlns="http://www.w3.org/2000/svg">
<circle cx="23" cy="23" r="23" transform="matrix(-1 0 0 1 49 3)" stroke="#A4A4A4" stroke-width="4.5"/>
<path d="M30.207 21.1071L24.4329 29.1188C24.2827 29.3272 23.9723 29.3272 23.8221 29.1188L20.9159 25.0867C20.8574 25.0054 20.7827 24.9397 20.6974 24.8944C20.6121 24.8492 20.5184 24.8257 20.4236 24.8257C20.3287 24.8257 20.235 24.8492 20.1497 24.8944C20.0645 24.9397 19.9897 25.0054 19.9313 25.0867L12.1326 35.9031C12.0605 36.0033 12.0157 36.1236 12.0034 36.2503C11.9912 36.3769 12.0119 36.5048 12.0633 36.6192C12.1146 36.7336 12.1945 36.83 12.2938 36.8974C12.3932 36.9647 12.5079 37.0003 12.6249 37H41.3736C41.8972 37 42.1863 36.3452 41.8659 35.9031L31.1994 21.1071C31.1402 21.0257 31.0647 20.9599 30.9788 20.9147C30.8929 20.8695 30.7987 20.846 30.7032 20.846C30.6078 20.846 30.5135 20.8695 30.4276 20.9147C30.3417 20.9599 30.2663 21.0257 30.207 21.1071ZM15.1177 15.4014C15.1177 16.3035 15.447 17.1686 16.0332 17.8065C16.6194 18.4444 17.4144 18.8027 18.2434 18.8027C19.0724 18.8027 19.8674 18.4444 20.4536 17.8065C21.0398 17.1686 21.3691 16.3035 21.3691 15.4014C21.3691 14.4993 21.0398 13.6341 20.4536 12.9962C19.8674 12.3584 19.0724 12 18.2434 12C17.4144 12 16.6194 12.3584 16.0332 12.9962C15.447 13.6341 15.1177 14.4993 15.1177 15.4014Z" fill="#A4A4A4"/>
</svg>
