<svg width="52" height="52" viewBox="0 0 52 52" fill="none" xmlns="http://www.w3.org/2000/svg">
<circle cx="23" cy="23" r="23" transform="matrix(-1 0 0 1 49 3)" stroke="#FFE350" stroke-width="4.5"/>
<path d="M36.1481 15.539C36.1481 14.9962 35.5636 14.0046 34.2799 13.1107C33.5472 12.6058 32.7122 12.205 31.8108 11.9255C31.7809 11.9165 31.7478 11.9168 31.718 11.9262C31.6883 11.9357 31.664 11.9537 31.6499 11.9767C31.6437 11.9862 31.6376 11.9954 31.6306 12.0049L31.2378 12.5267C30.5754 13.443 30.2268 14.4833 30.2273 15.5423C30.2278 16.6012 30.5774 17.6413 31.2407 18.5572L31.2501 18.57L31.6081 19.0951C31.6271 19.123 31.6581 19.1444 31.6953 19.1554C31.7325 19.1663 31.7734 19.1661 31.8104 19.1548C34.8223 18.2107 36.1481 16.3754 36.1481 15.539ZM32.3011 15.5344C32.1654 15.5486 32.0275 15.5284 31.9068 15.4767C31.7862 15.4249 31.6887 15.3442 31.6282 15.2458C31.5678 15.1474 31.5472 15.0364 31.5696 14.9282C31.5919 14.82 31.6559 14.7201 31.7527 14.6426C31.8495 14.565 31.9742 14.5137 32.1093 14.4958C32.2443 14.4779 32.383 14.4944 32.5058 14.5428C32.6286 14.5913 32.7293 14.6693 32.7939 14.766C32.8585 14.8627 32.8837 14.9732 32.866 15.0819C32.8472 15.1966 32.7817 15.3032 32.6796 15.3851C32.5774 15.4669 32.4444 15.5194 32.3011 15.5344Z" fill="#FFE350"/>
<path d="M28.9165 15.5391C28.9159 14.2943 29.3269 13.0715 30.1076 11.9952L30.1125 11.9883L30.3018 11.7366C30.3154 11.7187 30.3235 11.6984 30.3254 11.6774C30.3272 11.6565 30.3228 11.6355 30.3124 11.6162C30.302 11.5969 30.2859 11.5799 30.2656 11.5666C30.2453 11.5533 30.2213 11.5441 30.1957 11.5397C29.6654 11.4509 29.1281 11.3918 28.5876 11.3629C28.5238 11.3596 28.4627 11.3413 28.4118 11.3104C27.6221 10.8293 26.0566 9.98796 24.4608 9.77171C24.3517 9.75724 24.2399 9.76509 24.1356 9.79455C24.0314 9.82401 23.9382 9.87411 23.8646 9.94019C23.791 10.0063 23.7395 10.0862 23.7148 10.1725C23.6901 10.2588 23.6931 10.3488 23.7235 10.4339L24.1585 11.6536C24.1698 11.6852 24.1659 11.7191 24.1475 11.7485C24.1292 11.7779 24.0977 11.8007 24.0594 11.8124C22.55 12.2617 21.2499 13.084 20.3017 13.7107C20.2436 13.7488 20.1711 13.7697 20.0961 13.7701C20.0211 13.7705 19.9482 13.7502 19.8896 13.7127C19.7607 13.6307 19.6284 13.5498 19.4927 13.4702C17.869 12.5202 15.9615 12.3952 15.8812 12.3906C15.7793 12.3844 15.677 12.3975 15.5824 12.4286C15.4879 12.4598 15.4038 12.5082 15.3368 12.5701C15.2698 12.632 15.2218 12.7055 15.1966 12.7849C15.1715 12.8643 15.1698 12.9472 15.1918 13.0272C15.209 13.0905 15.5683 14.3624 16.4903 15.377C16.5318 15.4225 16.5542 15.4774 16.5542 15.5337C16.5542 15.5901 16.5318 15.6449 16.4903 15.6904C15.5683 16.7047 15.209 17.9769 15.1918 18.0402C15.1698 18.1202 15.1715 18.2032 15.1966 18.2826C15.2218 18.3619 15.2698 18.4355 15.3368 18.4973C15.4038 18.5592 15.4879 18.6076 15.5824 18.6388C15.677 18.67 15.7793 18.683 15.8812 18.6768C15.9631 18.6722 17.869 18.5456 19.4906 17.5979C19.6231 17.52 19.7524 17.441 19.8785 17.361C19.9372 17.3235 20.0101 17.3033 20.0851 17.3037C20.1601 17.3042 20.2326 17.3252 20.2906 17.3633C21.2429 17.993 22.5455 18.8163 24.059 19.2665C24.0972 19.2782 24.1286 19.301 24.147 19.3303C24.1653 19.3597 24.1693 19.3934 24.1581 19.425L23.7215 20.645C23.6911 20.7302 23.6881 20.8201 23.7128 20.9064C23.7374 20.9927 23.7889 21.0726 23.8625 21.1387C23.9361 21.2048 24.0294 21.2549 24.1336 21.2844C24.2378 21.3138 24.3497 21.3217 24.4587 21.3072C25.1616 21.2121 26.5838 20.8852 28.393 19.7705C28.4447 19.7389 28.5067 19.7201 28.5716 19.7164C29.1114 19.6881 29.6482 19.6299 30.1781 19.5425C30.2031 19.5383 30.2265 19.5294 30.2465 19.5167C30.2665 19.5039 30.2825 19.4876 30.2932 19.469C30.3039 19.4504 30.309 19.4301 30.3081 19.4096C30.3073 19.3892 30.3005 19.3691 30.2882 19.3512L30.1035 19.0791C29.3251 18.0036 28.9155 16.7823 28.9165 15.5391Z" fill="#FFE350"/>
<path d="M19.8504 30.9198C19.8504 30.9198 20.4654 29.6898 20.4654 28.4599C20.4654 27.2299 19.2354 26 19.2354 26C19.2354 26 18.0055 27.2299 18.0055 28.4599C18.0055 29.6898 18.6205 30.9198 18.6205 30.9198M19.2354 34.6096C19.7247 34.6096 20.194 34.4152 20.54 34.0693C20.886 33.7233 21.0804 33.254 21.0804 32.7647C21.0804 32.2754 20.886 31.8061 20.54 31.4601C20.194 31.1142 19.7247 30.9198 19.2354 30.9198C18.7461 30.9198 18.2769 31.1142 17.9309 31.4601C17.5849 31.8061 17.3905 32.2754 17.3905 32.7647C17.3905 33.254 17.5849 33.7233 17.9309 34.0693C18.2769 34.4152 18.7461 34.6096 19.2354 34.6096Z" stroke="#FFE350" stroke-width="1.02273" stroke-miterlimit="1.5" stroke-linecap="round" stroke-linejoin="round"/>
<path d="M17.3904 32.1497C17.3904 32.1497 16.1604 31.5348 14.9305 31.5348C13.7005 31.5348 12.4706 32.7647 12.4706 32.7647C12.4706 32.7647 13.7005 33.9947 14.9305 33.9947C16.1604 33.9947 17.3904 33.3797 17.3904 33.3797M19.8503 34.6096C19.8503 34.6096 20.4652 35.8396 20.4652 37.0695C20.4652 38.2995 19.2353 39.5294 19.2353 39.5294C19.2353 39.5294 18.0053 38.2995 18.0053 37.0695C18.0053 35.8396 18.6203 34.6096 18.6203 34.6096M21.0802 32.1497C21.0802 32.1497 22.3102 31.5348 23.5401 31.5348C24.77 31.5348 26 32.7647 26 32.7647C26 32.7647 24.77 33.9947 23.5401 33.9947C22.3102 33.9947 21.0802 33.3797 21.0802 33.3797M18.3657 31.0256C18.3657 31.0256 17.9309 29.7206 17.0607 28.851C16.1912 27.9814 14.452 27.9814 14.452 27.9814C14.452 27.9814 14.452 29.7206 15.3216 30.5908C16.1912 31.4603 17.4961 31.8951 17.4961 31.8951M17.4961 33.6343C17.4961 33.6343 16.1912 34.0691 15.3216 34.9393C14.452 35.8088 14.452 37.548 14.452 37.548C14.452 37.548 16.1912 37.548 17.0607 36.6784C17.9309 35.8088 18.3657 34.5039 18.3657 34.5039M20.975 33.6343C20.975 33.6343 22.2788 34.0691 23.149 34.9393C24.0185 35.8088 24.0185 37.548 24.0185 37.548C24.0185 37.548 22.2794 37.548 21.4098 36.6784C20.5396 35.8088 20.1049 34.5039 20.1049 34.5039M20.1049 31.0256C20.1049 31.0256 20.5396 29.7206 21.4098 28.851C22.2794 27.9814 24.0185 27.9814 24.0185 27.9814C24.0185 27.9814 24.0185 29.7206 23.149 30.5908C22.2794 31.4603 20.9744 31.8951 20.9744 31.8951" stroke="#FFE350" stroke-width="1.02273" stroke-miterlimit="1.5" stroke-linecap="round" stroke-linejoin="round"/>
<path d="M41.1898 31.7502C41.1898 30.5108 40.3427 29.4942 39.2102 29.1821C39.3745 28.7764 39.4365 28.3365 39.3908 27.9011C39.3452 27.4658 39.1932 27.0484 38.9484 26.6855C38.7036 26.3227 38.3733 26.0255 37.9867 25.8203C37.6001 25.615 37.169 25.5078 36.7313 25.5083C36.3479 25.5083 35.9912 25.5974 35.6702 25.7401C35.8396 24.786 36.1873 23.3592 37.088 23.0115L36.3746 21.9414C34.8587 22.628 34.4128 24.6968 34.288 25.7668C33.9402 25.6063 33.5657 25.5083 33.1644 25.5083C32.7267 25.5078 32.2956 25.615 31.909 25.8203C31.5224 26.0255 31.1922 26.3227 30.9473 26.6855C30.7025 27.0484 30.5506 27.4658 30.5049 27.9011C30.4593 28.3365 30.5213 28.7764 30.6855 29.1821C29.5441 29.4853 28.7059 30.5197 28.7059 31.7502C28.7059 32.9897 29.553 34.0152 30.6944 34.3184C30.5696 34.6215 30.4893 34.9604 30.4893 35.3171C30.4893 36.5566 31.3275 37.582 32.4689 37.8852C32.3047 38.2909 32.2427 38.7308 32.2883 39.1662C32.334 39.6015 32.4859 40.0189 32.7308 40.3818C32.9756 40.7446 33.3058 41.0418 33.6924 41.247C34.079 41.4523 34.5101 41.5595 34.9479 41.5591C35.3856 41.5595 35.8167 41.4523 36.2033 41.247C36.5899 41.0418 36.9201 40.7446 37.165 40.3818C37.4098 40.0189 37.5617 39.6015 37.6074 39.1662C37.653 38.7308 37.591 38.2909 37.4268 37.8852C37.9944 37.7364 38.4966 37.4036 38.8548 36.9389C39.2131 36.4742 39.407 35.9038 39.4064 35.3171C39.4064 34.9604 39.3351 34.6305 39.2013 34.3184C39.77 34.1702 40.2735 33.8378 40.6333 33.3732C40.993 32.9086 41.1887 32.3379 41.1898 31.7502ZM38.7911 29.8598V29.8776H38.7822L38.7911 29.8598ZM36.7313 26.8458C37.4714 26.8458 38.0689 27.4433 38.0689 28.1834C38.0689 28.9235 37.4714 29.521 36.7313 29.521C35.9912 29.521 35.3937 28.9235 35.3937 28.1834C35.3937 27.4433 35.9912 26.8458 36.7313 26.8458ZM36.2854 31.7502C36.2854 32.4903 35.688 33.0878 34.9479 33.0878C34.2077 33.0878 33.6103 32.4903 33.6103 31.7502C33.6103 31.0101 34.2077 30.4127 34.9479 30.4127C35.688 30.4127 36.2854 31.0101 36.2854 31.7502ZM33.1644 26.8458C33.9046 26.8458 34.502 27.4433 34.502 28.1834C34.502 28.9235 33.9046 29.521 33.1644 29.521C32.4243 29.521 31.8269 28.9235 31.8269 28.1834C31.8269 27.4433 32.4243 26.8458 33.1644 26.8458ZM30.0435 31.7502C30.0435 31.0101 30.6409 30.4127 31.381 30.4127C32.1211 30.4127 32.7186 31.0101 32.7186 31.7502C32.7186 32.4903 32.1211 33.0878 31.381 33.0878C30.6409 33.0878 30.0435 32.4903 30.0435 31.7502ZM31.8269 35.3171C31.8269 34.577 32.4243 33.9795 33.1644 33.9795C33.9046 33.9795 34.502 34.577 34.502 35.3171C34.502 36.0572 33.9046 36.6546 33.1644 36.6546C32.4243 36.6546 31.8269 36.0572 31.8269 35.3171ZM34.9479 40.2215C34.2077 40.2215 33.6103 39.624 33.6103 38.8839C33.6103 38.1438 34.2077 37.5464 34.9479 37.5464C35.688 37.5464 36.2854 38.1438 36.2854 38.8839C36.2854 39.624 35.688 40.2215 34.9479 40.2215ZM36.7313 36.6546C35.9912 36.6546 35.3937 36.0572 35.3937 35.3171C35.3937 34.577 35.9912 33.9795 36.7313 33.9795C37.4714 33.9795 38.0689 34.577 38.0689 35.3171C38.0689 36.0572 37.4714 36.6546 36.7313 36.6546ZM38.5147 33.0878C37.7746 33.0878 37.1771 32.4903 37.1771 31.7502C37.1771 31.0101 37.7746 30.4127 38.5147 30.4127C39.2548 30.4127 39.8523 31.0101 39.8523 31.7502C39.8523 32.4903 39.2548 33.0878 38.5147 33.0878Z" fill="#FFE350"/>
</svg>
