<svg width="144" height="141" viewBox="0 0 144 141" fill="none" xmlns="http://www.w3.org/2000/svg">
<path d="M7.1991 5.7749H15.4453V57.8609H7.1991V5.7749Z" fill="#060505"/>
<path d="M18.7997 5.7749H22.9276V49.1381H18.7997V5.7749Z" fill="#060505"/>
<path d="M25.3104 5.7749H33.7456V49.1381H25.3104V5.7749Z" fill="#060505"/>
<path d="M36.3358 5.77484H38.7639V49.1381H36.3358V5.77484Z" fill="#060505"/>
<path d="M41.8759 5.7749H49.2047V49.1381H41.8759V5.7749Z" fill="#060505"/>
<path d="M51.8759 5.7749H55.5092V49.1381H51.8759V5.7749Z" fill="#060505"/>
<path d="M57.532 5.77484H64.816V49.1381H57.532V5.77484Z" fill="#060505"/>
<path d="M67.2441 5.77484H69.2496V49.1381H67.2441V5.77484Z" fill="#060505"/>
<path d="M72.2714 5.7749H74.2767V49.1381H72.2714V5.7749Z" fill="#060505"/>
<path d="M77.0643 5.77484H85.0407V49.1381H77.0643V5.77484Z" fill="#060505"/>
<path d="M87.1182 5.77484H91.1289V49.1381H87.1182V5.77484Z" fill="#060505"/>
<path d="M94.0878 5.7749H102.046V57.7263H94.0878V5.7749Z" fill="#060505"/>
<path d="M21.5968 51.5839H21.5698L20.1667 52.2944L19.915 51.1973L21.7856 50.2799H22.9906V57.9329H21.5878V51.5839H21.5968Z" fill="#060505"/>
<path d="M26.66 57.9332V57.0519L27.5684 56.2156C29.3669 54.5429 30.2212 53.6257 30.2302 52.6095C30.2302 51.926 29.8616 51.3235 28.8633 51.3235C28.1798 51.3235 27.6132 51.6653 27.2266 51.962L26.804 50.9367C27.3616 50.4873 28.1978 50.1455 29.16 50.1455C30.8596 50.1455 31.6781 51.2156 31.6781 52.4655C31.6781 53.8055 30.7159 54.8937 29.3669 56.1256L28.7104 56.7012V56.7282H31.8398V57.9332H26.66Z" fill="#060505"/>
<path d="M34.2943 56.4313C34.591 56.6111 35.3102 56.8988 36.0387 56.8988C37.1447 56.8988 37.5855 56.2785 37.5855 55.6761C37.5855 54.7677 36.722 54.3811 35.8407 54.3811H35.1844V53.3196H35.8407C36.4972 53.3196 37.3517 53.0139 37.3517 52.2585C37.3517 51.728 36.9739 51.2965 36.1286 51.2965C35.5082 51.2965 34.8787 51.5664 34.564 51.7822L34.231 50.7299C34.6627 50.4332 35.5262 50.1455 36.4345 50.1455C38.0262 50.1455 38.8264 51.0178 38.8264 52.0159C38.8264 52.8163 38.3589 53.4728 37.4147 53.8055V53.8326C38.3409 54.0123 39.0873 54.7047 39.0963 55.7388C39.0963 57.0337 38.008 58.059 36.1196 58.059C35.1932 58.059 34.384 57.7983 33.9794 57.5286L34.2943 56.4313Z" fill="#060505"/>
<path d="M44.5374 57.9331V55.9905H41.0662V55.0463L44.1956 50.2711H45.9044V54.8935H46.8934V55.9905H45.9044V57.9331H44.5374ZM44.5374 54.8935V52.8072C44.5374 52.3755 44.5644 51.9348 44.5824 51.4762H44.5374C44.3035 51.9619 44.1057 52.3483 43.8629 52.7709L42.451 54.8665V54.8935H44.5374Z" fill="#060505"/>
<path d="M53.557 51.4762H50.6163L50.3915 53.0048C50.5534 52.9779 50.7062 52.9691 50.931 52.9691C51.6055 52.9691 52.2892 53.1217 52.7927 53.4635C53.3683 53.8322 53.7908 54.4799 53.7908 55.4061C53.7908 56.863 52.5769 58.0588 50.7064 58.0588C49.807 58.0588 49.0697 57.8342 48.665 57.6094L48.9618 56.512C49.2945 56.6918 49.9508 56.9168 50.6433 56.9168C51.4886 56.9168 52.307 56.4313 52.307 55.523C52.307 54.6417 51.6596 54.0659 50.1398 54.0659C49.7081 54.0659 49.3844 54.1019 49.0877 54.138L49.5822 50.2709H53.5481V51.4762H53.557Z" fill="#060505"/>
<path d="M60.6708 51.3054C60.455 51.2964 60.2211 51.3054 59.9424 51.3414C58.3327 51.5302 57.5593 52.5105 57.3705 53.5716H57.4064C57.7842 53.1399 58.3598 52.8252 59.124 52.8252C60.446 52.8252 61.4712 53.7694 61.4712 55.3252C61.4712 56.7819 60.4011 58.059 58.7734 58.059C56.9119 58.059 55.8866 56.6472 55.8866 54.7496C55.8866 53.2749 56.4172 52.0878 57.2176 51.3324C57.9101 50.6579 58.8453 50.2801 59.9424 50.1993C60.2572 50.1544 60.5 50.1544 60.6708 50.1634V51.3054ZM60.0053 55.4061C60.0053 54.5068 59.5198 53.8863 58.6745 53.8863C58.1349 53.8863 57.6492 54.219 57.4244 54.6777C57.3615 54.7946 57.3345 54.9384 57.3345 55.1364C57.3615 56.1525 57.829 56.9709 58.7824 56.9709C59.5198 56.9799 60.0053 56.3324 60.0053 55.4061Z" fill="#060505"/>
<path d="M68.6294 50.271V51.1972L65.392 57.924H63.8722L67.1006 51.4939V51.4669H63.4764V50.2622H68.6294V50.271Z" fill="#060505"/>
<path d="M72.0287 53.9405C71.2284 53.5537 70.8596 52.9152 70.8596 52.2407C70.8596 50.9908 71.9658 50.1455 73.4135 50.1455C75.0772 50.1455 75.8146 51.1347 75.8146 52.0789C75.8146 52.7264 75.4729 53.4009 74.6366 53.8145V53.8504C75.4729 54.1653 76.0935 54.8306 76.0935 55.784C76.0935 57.1508 74.9423 58.0682 73.3056 58.0682C71.5161 58.0682 70.5809 57.0339 70.5809 55.9638C70.5809 55.0196 71.1385 54.3721 72.0196 53.9853V53.9405H72.0287ZM74.6366 55.8919C74.6366 55.1185 74.07 54.6868 73.2067 54.453C72.4873 54.6508 72.0737 55.1634 72.0737 55.784C72.0467 56.4405 72.5414 57.0339 73.3596 57.0339C74.124 57.0339 74.6366 56.5484 74.6366 55.8919ZM72.2445 52.1778C72.2445 52.7983 72.766 53.1761 73.4946 53.3829C74.0251 53.2299 74.4478 52.8073 74.4478 52.2317C74.4478 51.7011 74.133 51.1436 73.3506 51.1436C72.6223 51.1436 72.2445 51.6293 72.2445 52.1778Z" fill="#060505"/>
<path d="M78.611 56.8898C78.8448 56.9168 79.0696 56.8988 79.4114 56.8629C79.987 56.8179 80.5446 56.6111 80.9672 56.2783C81.4707 55.8737 81.8125 55.2981 81.9564 54.5697H81.9294C81.5426 54.9924 80.9852 55.2442 80.2567 55.2442C78.9259 55.2442 77.9366 54.2909 77.9366 52.879C77.9366 51.4042 79.0696 50.1453 80.6973 50.1453C82.487 50.1453 83.4312 51.5392 83.4312 53.4097C83.4312 55.0463 82.9006 56.2155 82.1002 56.9799C81.4437 57.5913 80.5175 57.9601 79.4833 58.032C79.1507 58.068 78.8358 58.068 78.6111 58.059V56.8898H78.611ZM79.3844 52.7981C79.3844 53.5895 79.843 54.201 80.6435 54.201C81.2369 54.201 81.6595 53.9223 81.8844 53.5625C81.9294 53.4546 81.9654 53.3377 81.9654 53.1399C81.9654 52.1058 81.5787 51.2154 80.6345 51.2154C79.8971 51.2154 79.3844 51.8629 79.3844 52.7981Z" fill="#060505"/>
<path d="M90.7868 54.0391C90.7868 56.5121 89.8246 58.0589 87.9811 58.0589C86.2275 58.0589 85.2833 56.458 85.2743 54.12C85.2743 51.7279 86.2905 50.1362 88.08 50.1362C89.9235 50.1452 90.7868 51.7908 90.7868 54.0391ZM86.731 54.111C86.731 55.9815 87.2347 56.9527 88.0262 56.9527C88.8895 56.9527 89.3211 55.9185 89.3211 54.075C89.3211 52.2945 88.9073 51.2512 88.035 51.2512C87.2706 51.2512 86.731 52.2046 86.731 54.111Z" fill="#060505"/>
<path d="M108.449 63.5626H0.805542V0.40625H108.449V63.5626ZM3.59326 60.7748H105.661V3.19396H3.59326V60.7748Z" fill="#50A2CA"/>
<mask id="mask0_353_62799" style="mask-type:luminance" maskUnits="userSpaceOnUse" x="6" y="21" width="124" height="48">
<path d="M6.67749 21.615L97.6 68.3925L129.595 66.165L103.27 22.2225L6.67749 21.615Z" fill="url(#paint0_linear_353_62799)"/>
</mask>
<g mask="url(#mask0_353_62799)">
<path d="M6.67749 21.615L97.6 68.3925L129.595 66.165L103.27 22.2225L6.67749 21.615Z" fill="url(#paint1_linear_353_62799)"/>
</g>
<mask id="mask1_353_62799" style="mask-type:luminance" maskUnits="userSpaceOnUse" x="5" y="20" width="100" height="3">
<path d="M103.083 20.5435H6.7626C5.93275 20.5435 5.25964 21.0651 5.25964 21.7086C5.25964 22.3522 5.93275 22.8738 6.7626 22.8738H103.083C103.913 22.8738 104.586 22.3522 104.586 21.7086C104.586 21.0651 103.913 20.5435 103.083 20.5435Z" fill="white"/>
</mask>
<g mask="url(#mask1_353_62799)">
<path d="M150.25 3.53345H-11.7504V165.533H150.25V3.53345Z" fill="#FF0000"/>
</g>
<path d="M130.579 57.4074L131.961 57.9822C132.23 57.921 132.487 58.0556 132.622 58.3613C133.771 60.7582 134.48 63.2773 134.713 65.9187C134.676 65.9554 134.639 65.9921 134.603 66.041C134.603 66.0166 134.603 66.0044 134.603 65.9799C134.566 65.8698 134.541 65.7353 134.48 65.6496C133.38 64.2067 132.242 62.8494 131.13 61.4063C130.763 60.9293 129.894 60.5625 129.503 60.2079L128.341 59.4741L127.938 59.2539C127.632 59.156 127.51 59.0828 127.229 59.0093C125.7 58.5813 124.171 58.1412 122.606 57.8966C122.166 57.8721 121.726 57.811 121.285 57.7131C117.079 56.8816 112.835 56.7592 108.567 57.016C107.32 57.0895 106.06 57.2362 104.825 57.4196C102.502 57.762 100.19 58.1655 97.9282 58.8504C97.4512 58.9971 96.9743 59.1807 96.4851 59.2784C95.8247 59.4129 95.2256 59.7309 94.5775 59.8899C94.4552 59.9143 94.2717 59.9266 94.2594 60.1222C94.2472 60.2689 94.3818 60.3179 94.4918 60.3791C96.0204 61.3696 97.5124 62.4212 99.0776 63.3384C100.655 64.2556 102.123 65.3073 103.676 66.2611C105.449 67.3618 107.198 68.499 108.959 69.6241C110.438 70.5657 111.906 71.5318 113.41 72.4489C115.024 73.4273 116.589 74.4789 118.179 75.5062C118.766 75.8852 119.28 76.35 119.671 76.9125C120.931 78.7224 121.163 80.8258 121.273 82.9413C121.346 84.4211 121.2 85.9007 120.931 87.356C120.857 87.7595 120.967 87.9674 121.432 87.943C122.166 87.9062 122.9 87.9185 123.633 87.9185C123.853 87.9185 124.073 87.9307 124.306 87.9307C128.892 87.9307 133.49 87.9307 138.076 87.9307C137.648 91.4038 137.22 94.8768 136.779 98.3497C136.425 101.199 136.058 104.036 135.703 106.886L135.63 107.252C135.41 109.148 135.202 111.056 134.957 112.951C134.492 116.73 134.016 120.496 133.539 124.275C133.062 128.066 132.585 131.869 132.108 135.66C131.924 137.091 131.741 138.522 131.594 139.965C131.545 140.393 131.472 140.588 130.958 140.576C128.231 140.539 125.504 140.552 122.765 140.564C122.41 140.564 122.08 140.515 121.75 140.381C120.185 139.745 118.619 139.121 117.054 138.497C116.92 138.448 116.797 138.363 116.651 138.351C115.501 138.192 114.963 137.458 114.767 136.406C114.547 135.208 114.547 134.009 115.085 132.884C115.403 132.199 115.929 131.808 116.712 131.808C117.714 131.808 118.705 131.771 119.708 131.808C120.185 131.82 120.393 131.674 120.454 131.184C120.686 129.448 120.588 127.724 120.38 126.012C119.83 121.572 119.28 117.121 118.717 112.682C118.167 108.316 117.604 103.963 117.054 99.5971C116.516 95.3781 116.002 91.1592 115.464 86.9402C115.403 86.4389 115.758 86.6468 116.088 86.5489C113.972 85.9252 111.979 85.3504 109.986 84.7635C107.76 84.1153 105.547 83.4549 103.321 82.7946L101.364 82.1832C98.7841 81.2659 96.1795 81.9753 93.5747 82.012C92.9143 82.0242 92.2418 82.2321 91.5936 81.9263C91.826 81.7919 91.8382 81.6329 91.7526 81.3638C90.8598 78.6001 90.7865 75.7385 90.7743 72.8769C90.7743 71.8497 90.7986 70.8103 90.8598 69.7709C90.9332 68.499 90.9822 67.2149 91.1289 65.9554C91.3857 63.7053 91.6914 61.4551 91.9727 59.2172C92.1929 59.1072 92.4007 58.9728 92.6209 58.8749C94.5287 58.0555 96.4484 57.2729 98.4295 56.6614C101.927 55.6097 105.498 54.925 109.142 54.7905C112.248 54.6804 115.367 54.7048 118.473 55.0227C120.637 55.2429 122.802 55.4875 124.917 55.9522C126.678 56.3435 128.439 56.8081 130.188 57.2606L130.579 57.4074Z" fill="#201C26"/>
<path d="M127.192 62.6658C127.62 63.2405 128.194 63.6685 128.671 64.1945C129.833 65.4662 131.068 66.6646 132.242 67.912C133.954 69.7341 135.654 71.5562 137.39 73.3416C138.075 74.0387 138.76 74.7724 139.139 75.7263C139.726 77.1571 140.093 78.6246 140.252 80.1776C140.497 82.5745 140.191 84.9101 139.775 87.2459C139.689 87.7228 139.42 87.8696 138.968 87.8329C138.699 87.8084 138.393 87.7228 138.149 87.9307L138.1 87.9552L138.039 87.9429C133.453 87.9429 128.855 87.9429 124.269 87.9429C124.049 87.9429 123.829 87.9307 123.596 87.9307C123.816 87.038 123.914 86.133 123.939 85.2282C123.975 83.6872 124.036 82.1342 123.829 80.6056C123.633 79.1871 123.278 77.8419 122.41 76.6556C121.493 75.4084 120.405 74.3689 119.182 73.3906C117.506 72.0453 115.66 70.9325 113.948 69.6607C111.991 68.2055 109.875 66.9582 107.821 65.6374C106.256 64.6346 104.666 63.6808 103.125 62.6413C101.535 61.5651 99.9699 60.4402 98.3314 59.4252C98.1357 59.303 97.9154 59.1561 97.9032 58.8626C100.153 58.1778 102.477 57.7742 104.8 57.4318C106.048 57.2484 107.295 57.114 108.542 57.0284C112.81 56.7593 117.054 56.8938 121.26 57.7253C121.701 57.811 122.141 57.8843 122.581 57.8965C122.838 58.1411 123.095 58.3856 123.339 58.6425C124.012 59.3396 124.709 60.0244 125.345 60.7704" fill="#5A5D72"/>
<path d="M92.6326 53.9344C94.0878 53.5798 95.543 53.1763 97.0105 52.8705C100.117 52.2345 103.247 51.7576 106.402 51.4397C108.665 51.2073 110.927 50.9749 113.202 50.9749C117.103 50.9627 120.894 51.5252 124.477 53.2006C126.115 54.2034 127.742 55.2184 129.38 56.2334C129.625 56.3801 129.845 56.5514 130.077 56.7104C130.077 56.9183 130.408 57.0527 130.188 57.2973C128.439 56.8448 126.678 56.3801 124.917 55.9888C122.789 55.5118 120.637 55.2673 118.472 55.0594C115.366 54.7415 112.248 54.7293 109.142 54.8271C105.497 54.9493 101.927 55.6342 98.429 56.6981C96.4357 57.2973 94.5159 58.08 92.6203 58.9116C92.4002 59.0095 92.1923 59.1439 91.9722 59.2539C90.2235 58.6547 88.4502 58.0922 86.7259 57.444C86.3836 57.3096 85.7966 57.3829 85.7109 56.7837C87.5086 55.6342 89.5264 55.0228 91.5074 54.338C91.862 54.1668 92.2535 54.0567 92.6326 53.9344Z" fill="#5A5D72"/>
<path d="M85.6744 56.7471C85.7601 57.3463 86.3469 57.273 86.6893 57.4075C88.4257 58.0556 90.1868 58.6304 91.9355 59.2173C91.6542 61.4675 91.3364 63.7053 91.0918 65.9554C90.9451 67.2271 90.8962 68.499 90.8227 69.7708C90.7616 70.7981 90.7371 71.8497 90.7371 72.8769C90.7493 75.7385 90.8227 78.6001 91.7154 81.3638C91.801 81.6207 91.7888 81.7918 91.5564 81.9263C90.0646 81.5962 88.5971 81.1804 87.1785 80.6424C85.8456 80.1409 85.3686 78.8691 85.1974 77.5606C84.9284 75.5796 85.0995 73.574 85.0873 71.5807C85.0506 66.9337 85.0874 62.2867 85.063 57.6397C85.063 57.1627 85.1974 56.8571 85.6744 56.7471Z" fill="#454358"/>
<path d="M128.096 59.1807C127.779 59.2418 127.509 59.0829 127.216 58.9972C125.687 58.5692 124.159 58.1289 122.594 57.8843C122.85 58.1289 123.107 58.3734 123.352 58.6303C124.024 59.3274 124.721 60.0122 125.357 60.7582L127.192 62.6781C127.62 63.2528 128.194 63.6808 128.671 64.2067C129.833 65.4785 131.068 66.6769 132.242 67.9243C133.954 69.7464 135.654 71.5685 137.39 73.3539C138.075 74.0509 138.76 74.7847 139.139 75.7385C139.726 77.1693 140.093 78.6368 140.252 80.1899C140.497 82.5867 140.191 84.9224 139.775 87.2582C139.689 87.7351 139.42 87.8818 138.968 87.8452C138.699 87.8207 138.393 87.7351 138.148 87.943C139.371 87.9552 140.594 87.943 141.817 87.9674C142.135 87.9674 142.282 87.8697 142.38 87.5639C144.067 82.0853 143.297 77.0349 139.751 72.4734C138.063 70.3089 136.4 68.1199 134.737 65.931C134.7 65.9677 134.663 66.0044 134.627 66.0532C134.627 66.0287 134.627 66.0165 134.627 65.9922C134.59 65.882 134.565 65.7475 134.504 65.6619C133.404 64.2189 132.291 62.7759 131.19 61.3452L128.096 59.1807Z" fill="#454358"/>
<path d="M97.9151 58.8385C97.9273 59.1198 98.1352 59.2665 98.3431 59.401C99.9817 60.416 101.547 61.541 103.137 62.6172C104.678 63.6567 106.267 64.6105 107.833 65.6133C109.887 66.934 112.003 68.1813 113.959 69.6365C115.684 70.9206 117.518 72.0212 119.193 73.3664C120.404 74.3447 121.505 75.3841 122.422 76.6315C123.29 77.8055 123.645 79.1629 123.84 80.5814C124.048 82.1222 123.987 83.6631 123.95 85.2039C123.926 86.1088 123.828 87.0138 123.608 87.9065C122.874 87.9187 122.14 87.8942 121.407 87.9309C120.942 87.9554 120.832 87.7475 120.905 87.344C121.174 85.8887 121.321 84.4091 121.248 82.9293C121.138 80.8138 120.918 78.7103 119.646 76.9005C119.254 76.338 118.741 75.8732 118.154 75.4941C116.564 74.4791 114.999 73.4275 113.385 72.437C111.88 71.5198 110.413 70.5537 108.933 69.6121C107.172 68.487 105.424 67.3497 103.65 66.2491C102.11 65.2953 100.63 64.2435 99.0523 63.3264C97.4748 62.4092 95.9828 61.3576 94.4665 60.3671C94.3687 60.3059 94.2343 60.2569 94.2343 60.1102C94.2465 59.9146 94.4299 59.9146 94.5522 59.8779C95.2003 59.7189 95.7994 59.401 96.4598 59.2665C96.9611 59.1686 97.4259 58.9852 97.9151 58.8385Z" fill="#454358"/>
<defs>
<linearGradient id="paint0_linear_353_62799" x1="106.928" y1="72.4101" x2="86.4366" y2="-8.92363" gradientUnits="userSpaceOnUse">
<stop stop-color="white"/>
<stop offset="0.5" stop-color="white" stop-opacity="0.5"/>
<stop offset="1" stop-color="white" stop-opacity="0"/>
</linearGradient>
<linearGradient id="paint1_linear_353_62799" x1="106.928" y1="72.4101" x2="86.4366" y2="-8.92363" gradientUnits="userSpaceOnUse">
<stop stop-color="#FF0000"/>
<stop offset="0.69" stop-color="#FF0000"/>
<stop offset="1" stop-color="#FF0000"/>
</linearGradient>
</defs>
</svg>
