<svg width="24" height="24" viewBox="0 0 24 24" fill="none" xmlns="http://www.w3.org/2000/svg">
<path fill-rule="evenodd" clip-rule="evenodd" d="M19.6973 0.535857L23.4318 0.120911L23.0169 3.85543C22.6332 7.30837 21.0858 10.5279 18.6292 12.9846L16.0557 15.5711C16.972 16.4874 17.1141 17.9231 16.3953 19.0013L14.2341 22.2431C13.709 23.0307 12.5947 23.141 11.9254 22.4717L10.4276 20.974L10.8519 18.0041L5.5486 12.7008L2.57875 13.1251L1.08101 11.6274C0.411687 10.958 0.522032 9.84369 1.30962 9.31863L4.55143 7.15743C5.62963 6.43863 7.0653 6.58079 7.98159 7.49708L10.5682 4.92354C13.0248 2.46692 16.2444 0.919518 19.6973 0.535857ZM21.2279 3.65665L21.3944 2.15837L19.8961 2.32485C16.8494 2.66337 14.0086 4.02873 11.841 6.19634L9.26743 8.76987C8.56089 9.47642 7.41535 9.47642 6.7088 8.76987C6.39922 8.46029 5.91417 8.41226 5.54989 8.65512L2.61257 10.6133L3.21514 11.2159L6.18499 10.7916L12.7611 17.3677L12.3368 20.3376L12.9394 20.9402L14.8976 18.0028C15.1405 17.6386 15.0924 17.1535 14.7829 16.8439C14.0763 16.1374 14.0763 14.9918 14.7829 14.2853L17.3564 11.7118C19.524 9.54416 20.8894 6.70337 21.2279 3.65665Z" fill="white"/>
<path d="M5.30337 14.8907L3.21729 20.371L8.69771 18.2845L5.30337 14.8907Z" fill="white"/>
</svg>
